<svg xmlns="http://www.w3.org/2000/svg" width="640" height="480"><path d="M0 0h640v480H0z" style="fill:#fff;fill-opacity:1;stroke:none"/><path d="m98.121 145.7 59.168-99.845 14.79 11.094-59.169 99.848Zm22.188 16.644 59.168-99.848L194.27 73.59l-59.168 99.848Zm22.187 16.64 59.168-99.847 14.793 11.093-59.168 99.848ZM423.543 389.77l59.168-99.848 14.793 11.094-59.168 99.847Zm22.187 16.64 59.168-99.848 14.793 11.094-59.168 99.848Zm22.192 16.64 59.168-99.847 14.789 11.098-59.168 99.844Zm0 0" style="stroke:none;fill-rule:nonzero;fill:#000;fill-opacity:1"/><path d="M0 17v10" style="fill-rule:nonzero;fill:#000;fill-opacity:1;stroke-width:1;stroke-linecap:butt;stroke-linejoin:miter;stroke:#fff;stroke-opacity:1;stroke-miterlimit:4" transform="matrix(4.93067 -8.3205 7.396 5.547 320 240)"/><path d="M231.246 173.438c32.68-55.145 98.906-70.047 147.922-33.286 49.016 36.766 62.262 111.27 29.586 166.41Zm0 0" style="stroke:none;fill-rule:nonzero;fill:#cd2e3a;fill-opacity:1"/><path d="M231.246 173.438c-32.676 55.14-19.43 129.644 29.586 166.41 49.016 36.761 115.242 21.859 147.922-33.286 16.336-27.57 9.715-64.824-14.793-83.203C369.453 204.977 336.34 212.43 320 240Zm0 0" style="stroke:none;fill-rule:nonzero;fill:#0047a0;fill-opacity:1"/><path d="M305.207 156.797C329.715 175.176 336.34 212.43 320 240s-49.453 35.023-73.96 16.64c-24.509-18.378-31.13-55.632-14.794-83.202 16.34-27.575 49.453-35.024 73.961-16.641m0 0" style="stroke:none;fill-rule:nonzero;fill:#cd2e3a;fill-opacity:1"/><path d="M157.29 434.145 98.12 334.3l14.79-11.098 59.167 99.848Zm22.187-16.641-59.168-99.848 14.793-11.094 59.168 99.848Zm22.187-16.64-59.168-99.848 14.793-11.094 59.168 99.848ZM482.71 190.078 423.544 90.23l14.793-11.093 59.168 99.847Zm22.188-16.64L445.73 73.59l14.793-11.094 59.168 99.848Zm22.192-16.641-59.168-99.848 14.789-11.094 59.168 99.844Zm0 0" style="stroke:none;fill-rule:nonzero;fill:#000;fill-opacity:1"/><path d="M0-23.5v3M0 17v3.5m0 3v3" style="fill-rule:nonzero;fill:#000;fill-opacity:1;stroke-width:1;stroke-linecap:butt;stroke-linejoin:miter;stroke:#fff;stroke-opacity:1;stroke-miterlimit:4" transform="matrix(-4.93067 -8.3205 7.396 -5.547 320 240)"/></svg>