<svg xmlns="http://www.w3.org/2000/svg" xmlns:xlink="http://www.w3.org/1999/xlink" viewBox="0 0 640 480"><defs><g id="b" fill="#fcea83"><path d="M754.4 449.6c2.9 7.6 23.5 17.7 47.5 4.8 16.3-9.2 26.8-22 36.9-45 2.8-5.8 4.3-13-2.4-17.3-5.3-3.9-14-8.2-17.8-12-1.9-2-3.8-3.4-5.2-4.8 1 1 1.9 1.9 2.8 3.3 9.6 11.5-.4 28.3-11 38.4-7.7 7.2-21.5 24.9-41.7 8.1-4.3-3.8-14.4 12-9 24.5zm291.4 0c-3.4 7.6-24 17.7-47.5 4.8-16.2-9.2-26.8-22-37.3-45-2.4-5.8-3.9-13 2.8-17.3 5.3-3.9 14-8.2 17.8-12 1.9-2 3.3-3.4 5.2-4.8-1 1-1.9 1.9-2.8 3.3-9.6 11.5.4 28.3 10.5 38.4 7.7 7.2 22 24.9 42.2 8.1 4.3-3.8 13.9 12 9 24.5z"/><path d="M900.1 490.8c38.3 0 97.3-17.3 129-77.7 5.2-10 0-15.3-6.3-18.6a73 73 0 0 1-19.2-14c7.7 7.7 6.2 13 1 21.6-24.5 40.8-58 61.4-104.5 61.4s-80-20.6-104.5-61.4c-5.2-8.6-6.7-13.9.5-21.5a66 66 0 0 1-19.2 13.9c-6.2 3.3-11.5 8.6-6.2 18.6 31.6 60.4 91 77.7 129.4 77.7"/></g><g id="d" fill="#073163"><path fill="#fff" d="M863.2 232.5c-6.2 1.4-10.5 1.9-16.3-3.4-3.8-3.8-2.9-10.5 1-13 4.3-2.8 8.1-4.7 13.4-3.3 5.3 1.5 19.2 14.4 15.8 14.9-3.4 0-8.6 3.3-13.9 4.8m14.8-23c2-1.5 4.4-2.4 10.6-3 5.8-.4 10-.4 11.5 4 2 5.2 3.4 11.4 7.2 14.3-2.4 1.4-14.4 2.9-18.7.5-5.7-2.9-7.2-14-10.5-15.8zm41.3.5c1.9-1.5 4.3-1.5 10.5-1s8.6 1 10 5.3c1.5 4.8 0 11 3 15.3-3 1-12.5 1-15.9-2.4-5.2-3.8-4.8-14.9-7.6-17.3z"/><path d="M948 212.8c-4.3-1-7.2-1.4-9 0 2.3 2.9.4 14.4 5.2 18.2 3.3 2.4 12 3 13.9-2.4 2.4-4.8 2.4-12-10-15.8zm-49.3-4.8c1.4-1.4 4.3-1.9 10-1.9 6.3 0 10 1 12 4.8 2 4.8 1.4 11 4.8 14.9-1.4 1.9-14.4 1.9-18.2-1-5.3-3.4-5.8-14.4-8.6-16.8m-40.7 4.3c0-2.4 3.3-2.8 12-3.3 8.5-1 9-.5 11.9 5.7 1.4 3.4 3.3 9.1 7.2 11-10.6 2.5-14 3.9-19.7.5a29.2 29.2 0 0 1-10-10.5c-.5-1.4-.5-2.9-1.5-3.4z"/></g><g id="f"><path d="M881 163.5c-10.1-7.7-22.1-14.9-33.1-16.3a280 280 0 0 1 32.6 25.4"/><path d="M886.7 156.3c-12-8.2-25.9-17.3-39.3-18.2a124 124 0 0 1 33 27.8m21.6-23a93 93 0 0 1 23.5-32.2c-4.8 10.1-10 30.7-12.5 38.9"/><path d="M912.6 140.5A48.4 48.4 0 0 1 937 115a101.2 101.2 0 0 0-18.2 35"/><path d="M916.9 150a84.5 84.5 0 0 1 37.8-31.6c-12 12-29.7 34-34 42.7m2.9-.5c8.6-4.8 25.9-12.5 38.3-10-7.6 2.8-30.6 13.3-40.7 23"/><path d="M921.7 157.2c8.1-8.6 23-21.5 38.8-26.8-11.5 11-36 36-39.3 39.8M898.7 152c-5.8-17.8-14.4-34.5-27.3-39.8a130.9 130.9 0 0 1 21 48.9m-4.8-9.6c-9.5-11.5-22.5-23-37.3-25.4a90.1 90.1 0 0 1 33 38.8"/><path d="M893 151c-12-21.6-21.2-25.4-26.4-29.7 4.3 8.1 14.8 29.7 21 38.8"/><path fill="none" d="M869 149.6a57.7 57.7 0 0 1 17.2 16.7"/><path d="M869 159.6c2.8 2.4 8.1 5.3 12.9 9.6m44.1-2.4c4.8-3.8 15.3-10 20.6-12m-24 8.7c4.8-6.3 14.4-14.9 17.8-17.8m-4.4-12a287 287 0 0 0-18.2 22.6m5.8-26.9a157 157 0 0 0-12 21.1m-25.9-20.1c2.9 7.7 8.2 20.6 10 25.9m-14.3-17.8c2 3 5.8 9.6 7.2 14.4"/></g><g id="g"><path d="M897.7 136.1c0-4.3 2.9-9 5.8-9 3.3 0 5.7 5.7 5.7 9 0 3.9-2.9 7.2-5.7 7.2-3 0-5.8-2.8-5.8-7.2"/><path d="M891.5 140c.5-4.8 3.8-8.6 6.7-8.2 2.9.5 4.3 6.3 3.8 9.6-.5 3.8-3.8 6.7-6.2 6.2-2.4 0-4.8-3.3-4.3-7.6m12.9 1.4c-1-4.3 1-9 3.9-9.6 2.8-.4 5.7 4.3 6.2 8.2 1 3.8-1.5 7.6-3.9 7.6-2.3.5-5.7-1.9-6.2-6.2"/><path d="M897.2 145.2c0-4.7 2.9-9 5.8-9 3.3 0 5.7 5.2 5.7 9 0 3.9-2.8 7.2-5.7 7.2s-5.8-2.8-5.8-7.2"/><path d="M888.6 147.6c0-4.3 3.4-9 6.2-9 3 0 5.8 5.7 5.8 9 0 3.9-3.4 7.2-5.8 7.2-2.8 0-6.2-2.8-6.2-7.2m17.7-1.9c0-4.3 3-9 5.8-9 3.3 0 5.7 5.7 5.7 9 0 3.9-2.8 7.2-5.7 7.2s-5.8-2.9-5.8-7.2"/><path d="M904.4 149.6c0-4.8 3.4-9.1 6.2-9.1 3 0 5.8 5.2 5.8 9 0 3.9-2.9 7.3-5.8 7.3-2.8 0-6.2-3-6.2-7.2"/><path d="M896.8 153.9c0-4.8 2.8-9.1 5.7-9.1 3.4 0 5.8 5.7 5.8 9 0 4-3 7.3-5.8 7.3-2.9 0-5.8-3-5.8-7.2zm-12 0c0-4.8 2.4-9.1 4.8-9.1s4.3 5.7 4.3 9c0 4-2.4 7.3-4.3 7.3-2.4 0-4.8-3-4.8-7.2m26.8-.9c0-4.4 2.4-8.7 4.8-8.7s4.8 5.3 4.8 8.6c0 4.3-2.9 7.2-4.8 7.2-2.4 0-4.8-2.9-4.8-7.2z"/><path d="M914.5 161c1-4.7 3.8-8.6 5.7-8 2 .4 2.4 6.1 1.5 9.5-.5 4.3-3.4 6.7-5.3 6.2-2-.4-2.9-3.8-2-7.6z"/><path d="M905.4 159.6c.5-4.3 3.3-8.6 5.7-8.1 2.9 0 4.3 5.7 3.9 9-.5 4.4-3 7.3-5.3 6.8-2.4 0-4.8-3.4-4.3-7.7M892 161c-1.5-4.7-4.4-8-6.3-7.6-1.9.5-2.4 6.2-1.4 9.6 1 3.8 3.8 6.2 5.7 5.7 1.5-.4 3-3.8 2-7.6z"/><path d="M888.6 160.1c0-4.3 2.4-8.6 4.8-8.6 2.9 0 4.8 5.3 4.8 8.6 0 4.3-2.4 7.2-4.8 7.2-2 0-4.8-2.9-4.8-7.2"/><path d="M895.8 162c0-4.8 2.9-9 5.7-9 3.4 0 5.8 5.2 5.8 9 0 3.9-2.9 7.2-5.8 7.2-2.8 0-5.7-2.9-5.7-7.2m2.4-52.7c-1 3.8-4.3 7.2-2 12.5-4.2-1.5-8-2-11.4 1.9 4.3-.5 8.1 1 10 3.8-3.8-.5-5.7 1.5-6.7 3.9 3.4-1 6.7-2 8.2-1.5-1.5 1.5-3.9 3.8-4.3 5.8 2.8-2.4 6.2-2 8.1-3.4-1.4 3.4 1.4 6.7 3.8 10-.4-4.7 2.4-8 1-10.5 4.3 1 4.8 4.8 11 4.8-2.4-1.4-3.8-6.2-6.7-6.2 1.4-.5 7.2-1 8.2 0-1-2-4.4-3.8-6.3-3.8 2-2 5.3-5.8 7.7-6.8-3.4.5-8.6 1-10.5 3.9 4.7-3.9 3.8-11 9-12-2.8-.5-7.1 1.4-10.5 4.8 1.5-2.9 1.5-6.7 3.4-7.7-3.9 1-8.2 5.8-9.6 8.2a18 18 0 0 0-2.4-7.7"/><path d="M900.6 117c0 1.4 0 4.3-.5 5.2m6.7-5.7c-1 1-2.9 4.3-2.9 7.2"/><path fill="none" d="M909.7 122.2a7.6 7.6 0 0 0-3.4 4.4"/></g><g id="e" fill="#059334"><path d="M858.9 169.7c-3.4 0-6.2-1.4-8.2-3.8-3.3-4.4-12.4-6.3-16.3-2.4-1.4 1-3.3 1-4.7 1.4-2.4 0-5.3 2.4-4.4 7.2 2-1.5 2.4 0 3.9 0 1-.5.5.5.5 1.4 0 2.4 5.2 7.2 10 6.7 5.3 0 7.7 2 8.6 3 1.5 1.3.5.9 1.5 3.3 1.4 1.4 1.9 1.9-.5 3.8a9.7 9.7 0 0 0 0 14.9c6.2 4.7 22 12 39.8-2 17.2-13.4 44-5.7 46-1 2.4 4.9 3.3 7.7 3.8 10.1.5 2 2.9 3.9 6.3 3.4 3.3 0 7.1 1.4 9 2.9 2.5 1.4 5.8 1 4.9-3.4-2-13.4-10.1-15.3-11-21.5 4.7.4 8 .4 10-1.5 1.4-1.9 3.3-5.3 5.3-6.2 1.4-1 1.4-2-.5-1.5-2.4.5-3.8 1.5-8.2 1-22-2.4-83.8-19.2-95.8-15.8"/><path fill="#000" d="M956.7 186a34.8 34.8 0 0 0-9.2 9.6c-4.7 6.2-19.1 12.4-36.9 12.4-17.2 0-27.7-2.8-35.4-9a60.6 60.6 0 0 0-10.6-6.8c-5.2-2.4-6.2-7.7-4.8-12-1.4 2.4-2.3 4.8-5.2 4.3-2 0-5.8 0-4.8 2-.5-1-.5-2.4-1-3l-1-.9c1.5 1 4.9-1.9 7.3-1.9 1.9.5 4.3-1.9 3.8-4.8l-1.4-6.2c3.8-2 54.1 7.2 64.2 8.1 10 .5 38.8 4.8 35 8.2"/><path d="M865.6 167.8c4.8-4.8 10.5-7.2 16.3-5.8h1.4c3-2.4 9.6-2.9 13.5-1h1.9c5.7-1.9 16.7 0 20.6 3.9l1.4 1c13-1 20.6 4.7 29.7 13.9 1 1 2.4 2.8 4.8 3.3 2.9.5 3.4 2 1 3.4a37.8 37.8 0 0 0-10 9c-4.4 5.8-18.3 11.6-35.6 11.6-16.7 0-26.8-3-34.5-8.7-4.3-3.3-7.6-5.2-10-6.7-2.9-1-6.7-4.8-5.3-8.6 1-3.8-1.4-8.6-3.3-13.4 1.4-1 5.2-2.4 7.1-1.4z"/><g fill="#00493d"><path d="M950.4 179.8c-9-9.2-16.7-14.9-29.7-14 0 .5 0 2-.5 3a66.3 66.3 0 0 1 23.5 17.7c2-2 5.3-4.3 6.7-6.7m-31.1-14.9c-3.9-3.8-14.9-5.8-20.6-3.8 0 1.9 0 4.8-1 6.7 3.4 1.4 6.2 4.8 9.1 8.1 2-.5 6.7-1.9 9.1-2.4a44 44 0 0 0 3.4-8.6m-22.5-3.9c-3.9-1.9-10.6-1.4-13.5 1-1 2-1.4 5.8-1.4 7.7 2 0 4.8 1.4 5.7 2.4 3-1 6.8-2.9 8.2-4.3.5-2 1.4-4.8 1-6.7zm-31.2 6.8c4.8-4.8 10.5-7.2 16.3-5.8-1 1.5-1.4 4.3-1.4 7.2-5.3-.5-12 1-14.9 2.9z"/><path d="M941.8 187.4a64.2 64.2 0 0 0-22-16.8c0 .5-1 2.4-1.5 3.9 2.9 4.3 8.6 13.9 11 19.2 2.4-1 9.1-3.9 12.5-6.3M905.4 198a179 179 0 0 0 1.4-19.7c2.4-.5 7.2-1.9 9.1-2.4 2.4 3.9 8.2 14 10.6 18.7-5.8 1.4-15.4 3.8-21.1 3.4m-16.8-23c2.4-1 5.8-3 8.1-4.8 2 1.4 5.8 4.8 7.2 6.7 0 4.3-1.4 16.8-1.9 21-3.8 0-10-.9-13.4-2.8.5-7.2 1-15.3 0-20.1m-24 5.7c.5-1 1-4.3 1-5.7 3.8-2.4 13.4-4.8 20.6-1 .5 4.8 0 16.8-.5 19.7a96.4 96.4 0 0 0-21-13z"/></g><g fill="none"><path fill="#000" d="M840.7 172c-1 0-1.5-2.8-3.4-2.8-.5 0-1.9.5-2.4 0 0 1 .5 2 1 2.4.5 1.4 2.9.5 4.8.5z"/><path d="M840.7 180.2c5.7 0 6.7-7.2 9.6-7.6m-6.3 8.1c4.3 2 7.7-8.1 11-7.7m-19.6-4.7c1.4 0 2.4-2 4.8.4 1 1 2.4 1.5 3.4 1.5m-1 5.2c-2 3-5.3 4.8-7.2 3.9m-1-15.8c-1.4 1-2.3 2.8-3.3 4.3m-1.4 2.8v2.4"/></g></g><path id="c" fill="#c8102e" d="M811.4 409.8c-1-4.8-7.1-2.9-9 2.9a68.4 68.4 0 0 1-6.8-10.6c-5.7-8.6-6.7-14.4 1.5-22.5 3.8-3.8 11.5-8.2 16.7-3.4 11 9.1 5.3 24-2.4 33.6m176.9 0c1-4.8 7.7-2.9 9.6 2.9 2.4-3.4 4.8-6.7 6.7-10.6 5.7-8.6 6.7-14.4-2-22.5-3.3-3.8-11-8.2-16.7-3.4-10.6 9.1-5.3 24 2.4 33.6m-233.9 39.8c-4.8-7.2-8.6-26-9.6-30.7-1.4-4.3-1.9-8.2 3.4-10 5.3-2 10 4.7 12.4 10.5 2.4 5.7 6.3 14.3 10.6 24.9-10.6-6.2-19.2-2-16.8 5.3m291.4 0c4.3-7.2 8.1-26 9.6-30.7 1-4.3 1.9-8.2-3.4-10-5.3-2-10 4.7-12.4 10.5-2.4 5.7-6.3 14.3-10.6 24.9 10.6-6.2 18.7-2 16.8 5.3"/><path id="a" fill="#fff" d="M989.7 233v93.4c0 81-38.3 108.8-89.6 130.8-51.3-22-90-49.8-90-130.8v-93.5h179.6z"/></defs><path fill="#006" d="M0 0h640v480H0z"/><path fill="#012169" d="M0 0h320v240H0z"/><path fill="#fff" d="m37.5 0 122 90.5L281 0h39v31l-120 89.5 120 89V240h-40l-120-89.5L40.5 240H0v-30l119.5-89L0 32V0z"/><path fill="#c8102e" d="M212 140.5 320 220v20l-135.5-99.5zm-92 10 3 17.5-96 72H0zM320 0v1.5l-124.5 94 1-22L295 0zM0 0l119.5 88h-30L0 21z"/><path fill="#fff" d="M120.5 0v240h80V0zM0 80v80h320V80z"/><path fill="#c8102e" d="M0 96.5v48h320v-48zM136.5 0v240h48V0z"/><g stroke="#fff" stroke-linejoin="round" stroke-width="9.6" transform="translate(-306.8 -21.2)scale(.87136)"><use xlink:href="#a" width="100%" height="100%"/><use xlink:href="#b" width="100%" height="100%"/><use xlink:href="#c" width="100%" height="100%"/><use xlink:href="#d" width="100%" height="100%"/><use xlink:href="#e" width="100%" height="100%"/><use xlink:href="#f" width="100%" height="100%"/><use xlink:href="#g" width="100%" height="100%"/></g><g stroke="#000" stroke-width="1.4"><g fill="#fcea83"><path stroke-width="1.2199039999999999" d="M350.554 370.563c2.527 6.623 20.477 15.424 41.39 4.183 14.203-8.017 23.352-19.17 32.153-39.211 2.44-5.054 3.747-11.328-2.091-15.075-4.619-3.398-12.2-7.145-15.51-10.456-1.656-1.743-3.312-2.963-4.532-4.183.872.872 1.656 1.656 2.44 2.876 8.365 10.02-.349 24.66-9.585 33.46-6.71 6.274-18.734 21.697-36.336 7.058-3.746-3.311-12.547 10.456-7.842 21.348zm253.914 0c-2.962 6.623-20.912 15.424-41.39 4.183-14.115-8.017-23.352-19.17-32.501-39.211-2.091-5.054-3.398-11.328 2.44-15.075 4.618-3.398 12.199-7.145 15.51-10.456 1.656-1.743 2.875-2.963 4.531-4.183-.871.872-1.656 1.656-2.44 2.876-8.365 10.02.349 24.66 9.15 33.46 6.709 6.274 19.17 21.697 36.77 7.058 3.748-3.311 12.113 10.456 7.843 21.348z"/><path stroke-width="1.2199039999999999" d="M477.511 406.463c33.373 0 84.783-15.074 112.406-67.704 4.53-8.714 0-13.332-5.49-16.207a63.6 63.6 0 0 1-16.73-12.2c6.71 6.71 5.402 11.328.871 18.822-21.348 35.551-50.539 53.501-91.057 53.501s-69.709-17.95-91.057-53.501c-4.531-7.494-5.838-12.112.436-18.734a57.5 57.5 0 0 1-16.73 12.112c-5.403 2.875-10.021 7.493-5.403 16.207 27.535 52.63 79.294 67.704 112.754 67.704z"/></g><path fill="#c8102e" stroke-width="1.2199039999999999" d="M400.222 335.883c-.872-4.182-6.187-2.527-7.843 2.527a59.6 59.6 0 0 1-5.925-9.236c-4.967-7.494-5.838-12.548 1.307-19.606 3.311-3.31 10.02-7.145 14.552-2.962 9.585 7.929 4.618 20.912-2.091 29.277zm154.143 0c.871-4.182 6.71-2.527 8.365 2.527 2.091-2.962 4.183-5.838 5.838-9.236 4.967-7.494 5.838-12.548-1.742-19.606-2.876-3.31-9.585-7.145-14.552-2.962-9.237 7.929-4.618 20.912 2.091 29.277zm-203.811 34.68c-4.183-6.273-7.494-22.655-8.365-26.75-1.22-3.747-1.656-7.145 2.963-8.714 4.618-1.743 8.713 4.095 10.804 9.15 2.092 4.966 5.49 12.46 9.237 21.696-9.237-5.402-16.73-1.742-14.639 4.618zm253.914 0c3.747-6.273 7.058-22.655 8.365-26.75.872-3.747 1.656-7.145-2.962-8.714-4.618-1.743-8.714 4.095-10.805 9.15-2.091 4.966-5.49 12.46-9.237 21.696 9.237-5.402 16.295-1.742 14.64 4.618z"/><g fill="#00493d" stroke="none"><path d="m374.778 332.92-3.311 1.743c-.872.349-.872 1.22-.872 1.656h-.435l-1.656-3.747h.436c0 .349.435.872 1.22.349l7.145-3.747c.871-.436.871-.872.435-1.22l.349-.436 2.091 4.183h-.348c-.436-.436-.872-.872-1.743-.436l-2.876 1.743 1.22 2.44 3.399-1.22c.871-.436.348-1.307.348-1.743h.436l1.743 3.834c-.436-.436-.872-.871-1.743-.436l-7.058 3.747c-.871.436-.871.872-.436 1.22l-.435.436-2.092-3.747.436-.436c.436.436.871.872 1.743.436l3.31-1.743zm7.145 5.49c.871-.435.871-.871.348-1.742h.436l4.183 6.273-2.876 2.092v-.349c1.656-1.307 1.656-2.963 1.22-3.398s-.871-.872-.871-1.22c-.349 0-.349-.436-1.22.436l-2.963 2.09c.436.35.872 1.656 2.963.35h.436l-4.619 3.398v-.436c2.092-1.743 1.22-2.963.872-3.311l-2.963 2.091c-.871.349-.871.871-.871 1.22.435 0 .435.436.871.871.436.872 1.743 1.656 3.747.872l.436.348-3.312 1.22-4.182-6.622h.436c.348.348.87.871 1.655.348zm6.622 15.859-2.875 2.44c-.436.436-.436 1.307 0 1.743h-.436l-2.963-2.963.436-.436c.436.436.872.872 1.743 0l5.402-5.402c.872-.436.872-.872.349-1.743l2.962 3.486c-.435-.523-1.22-.523-1.742 0l-2.44 2.44 2.091 2.09 2.527-2.09c.872-.872.436-1.22 0-1.743l.436-.349 2.875 3.311h-.435c-.349 0-.872-.348-1.656.436l-5.402 5.054c-.872.871-.872 1.22-.436 1.655v.436l-2.876-3.398c.349 0 1.22.435 1.656 0l2.876-2.876zm6.274 8.8 1.307 1.22 1.656-3.746s-1.307.348-3.399 1.655zl-.436.348-.871-.871c-.349.436-.784.436-1.22.871-1.22.872-.871 1.307-.348 1.743v.349l-2.092-2.092h.349l1.743-.435 8.278-4.531.435.348s-.435.436-4.182 8.8c0 .872-.349 1.22 0 2.092l-3.312-2.875.436-.436c.436.871 1.22.871 1.656 0 0-.436.435-1.307.435-1.743l-1.307-1.22.436-.435zm3.311 8.279.436-.436c.436.436.871.436 1.743 0l5.402-7.058-.436-.436c-.871-.435-2.09-.435-3.31.872v-.436l1.655-2.091 6.274 4.618-2.092 2.44h-.435c1.22-1.22.871-2.876 0-3.311v-.436l-5.403 7.145c-.871.436-.435 1.22 0 1.656h-.435z"/><path d="m409.022 373.003-2.091 2.963c-.436.871 0 1.22.436 1.743l-.436.348-3.311-2.527v-.435c.871.435 1.22.435 1.655-.349l4.619-6.274c.348-.871 0-1.307-.436-1.743l.436-.348 3.31 2.44v.435c-.87-.435-1.22-.435-1.742.436l-2.004 2.963 2.527 1.655 2.091-2.962c.349-.872 0-1.22-.436-1.656l.436-.436 3.311 2.527v.436c-.435-.436-1.22-.436-1.742.436l-4.096 6.622c-.871.436-.435.871 0 1.307v.349l-3.747-2.44h.436c.349 0 .871 0 1.22-.436l2.091-3.311zm8.365 11.764.436-.436c.436.436 1.22.436 1.656-.436l3.31-7.058c.436-.871 0-1.307-.435-1.742l7.145 3.398-1.743 3.311-.348-.436c1.22-1.655 0-3.31-.436-3.747-.435 0-.871-.435-1.22-.435-.435 0-.435 0-.871.871-.436.436-1.656 2.876-1.656 2.876.436.435 1.22 1.307 2.963-.872h.349l-2.44 5.054-.436-.348c1.22-2.614-.436-2.963-.871-2.963l-1.656 3.311c-.436.872 0 1.307.436 1.307v.436zm12.112 5.838c-1.22-.872-1.22-3.399 0-5.838.872-2.614 2.527-4.619 4.183-3.834 1.22.435.871 2.962 0 5.49-1.307 2.875-2.963 4.53-4.183 4.182h-.435c2.962 1.22 5.053-.436 6.273-3.399 1.22-2.44.872-5.402-1.742-6.622-2.44-1.307-4.967.349-6.187 3.311-1.22 2.963-.871 5.838 1.743 6.71zm12.896.784 1.743-4.967c.349-.871 0-1.307-.436-1.743l2.092.436v.436c-.436 0-.872 0-1.307.871l-1.656 4.967c-.871 2.091-2.091 3.747-4.531 2.963-1.743-.436-2.963-2.527-2.091-4.619l2.09-5.402c.35-.871 0-1.307-.435-1.743v-.348l3.747 1.655v.436c-.436-.436-1.22-.436-1.22.436l-2.178 5.315c-.436 1.656-.436 3.311.871 3.747 1.22.435 2.44-.436 3.224-2.527zm3.834-5.402c0-.436 0-.436-.435-.436l2.875.436 2.614 7.929 1.22-5.054c.349-.871 0-1.22-.436-1.656l2.44.436-.348.436c-.436 0-.872 0-1.307.871l-2.092 9.15h-.348l-3.398-10.021-2.092 6.71c0 1.22.436 1.22.872 1.655v.436l-2.527-.872v-.436c.435.436 1.22 0 1.22-.87l2.09-7.495zm14.203 8.365c-.87 3.746-2.614 4.618-3.398 4.618h-.871s-.349-.436 0-.872l1.307-8.365c.436-.435.436-.871.871-.435h.872c.784 0 1.568 1.742 1.22 5.054l1.22.435c.87-4.182-.872-5.925-2.963-6.274-1.656-.435-4.183-.87-4.183-.87v.435c.436.435 1.307.435.872 1.743l-1.22 7.406q-.654 1.307-1.307 1.307h-.349l4.095.871c2.092.349 4.183 0 5.054-4.618zm3.747-3.399c0-.871-.871-1.22-1.307-1.22v-.435l7.581.871-.436 3.311c0-2.091-1.307-2.875-2.09-2.875-.437-.436-.872-.436-1.308-.436-.348 0-.348 0-.348 1.22l-.436 3.398c.436 0 1.655.349 2.527-2.091l-.436 5.402h-.436c0-2.527-1.22-2.527-1.742-2.527l-.349 3.747c0 .872 0 .872.436.872l.871.435c1.22 0 2.44-.435 3.311-2.962h.436l-.871 3.31-7.93-.87c.872 0 1.22-.349 1.743-1.133zm13.768 5.054c0 3.747-1.307 4.967-2.527 4.967-.436-.349-.436-.349-.871-.349l-.349-.435.436-8.714c0-.523 0-.523.348-.523h.872c.87 0 2.09 1.307 2.09 5.054h1.656c0-4.182-2.09-5.402-4.182-5.402-1.743-.436-4.183-.436-4.183-.436v.436c.436 0 1.307.348 1.307 1.22l-.435 7.929c0 .871-.436 1.22-.872 1.22v.436h3.747c2.091 0 4.183-.872 4.618-5.403h-1.742zm12.112 3.311c0 .872.435.872 1.22.872v.435l-4.619.349c.436-.349 1.307-.871 1.307-1.656l-.87-7.842c-.437-.871-.872-.871-1.656-.871v-.436l4.618-.436c-.436.436-1.307.872-.872 1.743zm4.182.872v-.436c.436 0 .872-.436.872-1.22l-1.743-8.713h-.436c-.871.348-1.655 1.132-1.22 2.875h-.435l-.436-2.963 7.58-1.22.35 2.876h-.35c0-1.656-1.306-2.091-2.613-2.091h-.349l1.743 8.713c0 .872.348 1.307 1.22 1.307v.436zm17.95-8.365-1.742-4.967c0-.871-.785-.871-1.22-.871v-.436l2.09-.872v.436c-.435.436-.435.436-.435 1.307l1.743 5.403c.348 1.742.348 4.182-2.091 5.054-1.743.348-3.747-.436-4.183-2.963l-1.743-5.403c-.348-.87-.784-.87-1.22-.87l-.435-.437 4.182-1.22v.436c-.348.436-.871.872-.348 1.656l1.22 5.402c.435 1.743 1.742 2.527 2.875 2.527 1.307-.436 1.743-2.091 1.307-4.182m4.618-2.963c2.005-.871 1.656-2.004 1.22-3.311-.435-1.22-1.22-2.091-2.09-1.656-.437 0-.872.436-.437.872zl.349.436.871 3.398c.436.871 1.22.871 1.743.349v.435l-3.834 1.743-.436-.436c.872-.435.872-.871.872-1.742l-2.963-7.058c-.436-1.22-.871-.872-1.655-.872v-.348l4.182-1.743c1.743-.349 3.311 0 4.183 1.743.435 2.09-.436 3.31-2.092 4.182-.435 0-.871.349-.871.349z"/><path d="M527.179 390.082c-1.22.523-2.876-1.22-4.183-4.095-1.22-2.527-1.22-5.054 0-5.403 1.307-.436 2.963 1.22 4.183 3.747 1.307 2.527 1.307 4.967 0 5.838 2.614-.871 3.398-3.747 2.09-6.71-1.219-2.526-3.746-4.182-6.273-3.31a4.88 4.88 0 0 0-2.091 6.709c1.307 2.875 3.834 4.531 6.274 3.311zm.435-11.59h-.784l2.44-1.742 7.58 4.183-2.613-4.531c-.349-.872-1.22-.872-1.569-.872v-.435l2.091-.872c-.435.523-.87.872 0 1.743l4.183 8.365-.436.436-9.236-5.054 3.398 6.274c.349.87 1.22.87 1.656.435v.436l-2.091 1.22v-.436c.435-.436.435-.871 0-1.655l-3.312-6.71-1.307-.871zm18.822 1.22v-.435c0-.436.435-.871 0-1.656l-5.054-7.058h-.436c-.871.349-1.22 2.092 0 3.312l-.348.435-1.743-2.962 6.274-4.183 1.742 2.614c-1.307-1.307-2.614-1.307-3.398-.871l-.436.348 5.054 7.146c.436.87 1.22.87 1.743.435v.349zM551.054 369.692l2.44 2.963c.435.348 1.307.348 1.742 0v.348l-3.398 2.963v-.436c.436-.435.436-.871 0-1.655l-4.967-6.274c-.435-.872-.871-.436-1.742-.436l3.398-2.875v.435c0 .349-.436.872 0 1.656l2.091 2.44 2.44-1.656-2.004-2.875c-.436-.872-1.307-.436-1.743-.436l3.399-2.963v.436c-.436.436-.436.871 0 1.743l4.966 6.186q.654.654 1.307 0l.349.436-3.311 2.963-.436-.436c.436-.436.871-.871.436-1.743l-2.527-2.875zm3.747-8.8c-.436-.35-1.307-.35-1.743 0v-.35l5.49-5.053 2.527 2.527h-.436c-1.307-1.743-2.963-.871-3.747-.436 0 .436-.436.436-.871.872 0 0 0 .348.435 1.22l2.527 2.526c.349-.435 1.656-1.307 0-3.398h.349l3.398 3.834v.349c-2.091-2.092-2.962-.872-3.398-.349l2.614 2.44c.348.871.784.871.784.871l1.22-1.22c.436-.435.871-1.742 0-4.182h.436l1.655 2.875-5.402 5.403-.436-.349c.436-.435.872-.871 0-1.743zm10.02-11.677c-.435.436-.435 1.307.349 1.743.871.784 1.743.784 3.398 0 .872-.436 2.44-.872 3.747.348 2.091 2.092 1.22 3.747.871 4.619-.435.435-1.307.871-1.742 1.22-.436 0-.436 0-.436.435v.436l-2.875-2.527h.435c1.656.871 3.311 1.22 4.183 0 .871-.871 0-1.743-.436-2.091-.871-.872-1.743-.872-2.963 0-1.22.435-2.875.435-4.182-.436-1.656-1.656-1.656-2.876-.871-4.183l1.742-1.22c.436 0 .436 0 0-.87l2.963 2.09h-.436c-2.091-.87-3.398-.348-3.747.436m3.747-3.311c-.871-.436-1.307 0-1.742.436h-.349l4.618-6.71 2.876 2.091-.436.436a2.875 2.875 0 0 0-3.747 0c0 .436-.436.871-.436 1.22-.348 0-.348.436.436.871.436.436 2.963 2.092 2.963 2.092.435-.436 1.22-1.307-.436-2.963v-.436l4.183 3.399c-2.527-1.307-2.963 0-3.312.348l2.876 2.091c.871.436 1.22.436 1.22.436 0-.436.436-.871.871-1.22.436-.871.872-2.091-.871-3.747l.436-.435 2.09 2.527-4.182 6.273h-.435c.435-.87.435-1.307-.349-2.09zm11.24-7.494-1.22 2.092c-1.742-1.743-2.526-2.963-2.526-2.963zh.871c.436 0 1.22.349 1.656.349 1.22.435.871.871.435 1.743h.436l2.091-3.834c-.871.87-1.307.435-2.09.435-8.802-1.655-9.586-2.091-9.586-2.091v.436l6.622 7.493c.436.436.436 1.307.436 1.743h.436l1.22-2.091-.436-.436c-.436.871-.871 1.22-1.656 0l-.87-.871 1.306-2.876zm-2.526-9.236c-.349.436-.349 1.307.871 1.743 1.22.348 1.743 0 2.963-.872s2.44-1.743 4.095-.871c2.614 1.307 2.091 3.398 1.743 4.182l-1.307 1.743v.784l-3.311-1.742c2.091.435 3.747 0 4.182-1.22.436-.872-.435-1.656-.871-2.092-.871-.348-1.656 0-2.876.872-1.307 1.22-2.614 1.743-4.182.871-1.743-.871-2.527-2.091-1.743-3.398 0-.872.872-1.22 1.307-1.656 0-.435 0-.435-.435-.871v-.349l3.398 1.656h-.436c-2.091-.436-3.398.436-3.398 1.22"/></g></g><g stroke="#000" stroke-width="1.4"><g fill="#073163"><path fill="#fff" stroke-width="1.2199039999999999" d="M445.358 181.391c-5.402 1.22-9.15 1.656-14.203-2.962-3.311-3.312-2.527-9.15.871-11.328 3.747-2.44 7.058-4.095 11.676-2.876 4.619 1.307 16.73 12.548 13.768 12.984-2.963 0-7.494 2.875-12.112 4.182zm12.896-20.041c1.743-1.307 3.834-2.091 9.236-2.614 5.054-.349 8.714-.349 10.021 3.485 1.743 4.531 2.963 9.934 6.274 12.46-2.091 1.22-12.548 2.528-16.295.436-4.966-2.527-6.273-12.199-9.149-13.767zm35.987.436c1.656-1.307 3.747-1.307 9.15-.872s7.493.872 8.713 4.618c1.307 4.183 0 9.585 2.614 13.332-2.614.872-10.892.872-13.854-2.091-4.531-3.311-4.183-12.983-6.623-15.075z"/><path stroke-width="1.2199039999999999" d="M519.25 164.225c-3.748-.871-6.275-1.22-7.843 0 2.004 2.527.349 12.548 4.531 15.86 2.876 2.09 10.456 2.613 12.112-2.092 2.091-4.183 2.091-10.456-8.714-13.768zm-42.959-4.182c1.22-1.22 3.747-1.656 8.714-1.656 5.49 0 8.713.872 10.456 4.183 1.743 4.182 1.22 9.585 4.183 12.983-1.22 1.656-12.548 1.656-15.86-.871-4.617-2.963-5.053-12.548-7.493-14.64zm-35.464 3.747c0-2.092 2.875-2.44 10.456-2.876 7.407-.871 7.842-.435 10.37 4.967 1.22 2.963 2.875 7.93 6.273 9.585-9.236 2.178-12.199 3.398-17.166.436a25.44 25.44 0 0 1-8.713-9.15c-.436-1.22-.436-2.527-1.307-2.962z"/></g><g fill="#f9d050" stroke-width=".6"><path stroke-width=".522816" d="M460.868 121.267c-8.8-6.71-19.257-12.983-28.842-14.203a244 244 0 0 1 28.406 22.133"/><path stroke-width=".522816" d="M465.835 114.994c-10.456-7.146-22.568-15.075-34.245-15.86a108 108 0 0 1 28.755 24.225m18.822-20.042a81 81 0 0 1 20.477-28.057c-4.183 8.8-8.714 26.75-10.892 33.895"/><path stroke-width=".522816" d="M488.403 101.226a42.17 42.17 0 0 1 21.261-22.22 88.2 88.2 0 0 0-15.858 30.498"/><path stroke-width=".522816" d="M492.15 109.504a73.63 73.63 0 0 1 32.937-27.535c-10.456 10.456-25.879 29.626-29.626 37.207m2.527-.436c7.494-4.182 22.568-10.892 33.373-8.713-6.622 2.44-26.663 11.589-35.464 20.041"/><path stroke-width=".522816" d="M496.333 115.778c7.058-7.494 20.04-18.734 33.808-23.353-10.02 9.585-31.369 31.37-34.244 34.68m-19.606-15.858c-5.054-15.51-12.547-30.062-23.788-34.68a114.1 114.1 0 0 1 18.299 42.61m-4.183-8.366c-8.278-10.02-19.605-20.041-32.502-22.133a78.5 78.5 0 0 1 28.755 33.81"/><path stroke-width=".522816" d="M471.324 110.375c-10.456-18.821-18.472-22.132-23.003-25.879 3.746 7.058 12.896 25.88 18.298 33.809"/><path fill="none" stroke-width=".522816" d="M450.412 109.155a50.3 50.3 0 0 1 14.987 14.552"/><path stroke-width=".522816" d="M450.412 117.87c2.44 2.09 7.058 4.617 11.24 8.364m38.427-2.091c4.183-3.311 13.332-8.714 17.95-10.456m-20.912 7.58c4.182-5.49 12.547-12.983 15.51-15.51m-3.834-10.456a250 250 0 0 0-15.859 19.693m5.054-23.44a137 137 0 0 0-10.456 18.386m-22.568-17.515c2.526 6.71 7.145 17.95 8.713 22.569m-12.46-15.51c1.742 2.613 5.054 8.364 6.273 12.547M475.42 97.392c0-3.747 2.527-7.842 5.054-7.842 2.875 0 4.967 4.967 4.967 7.842 0 3.398-2.527 6.274-4.967 6.274-2.614 0-5.054-2.44-5.054-6.274z"/><path stroke-width=".522816" d="M470.017 100.79c.436-4.182 3.312-7.493 5.839-7.145 2.526.436 3.746 5.49 3.31 8.365-.435 3.311-3.31 5.838-5.402 5.403-2.091 0-4.182-2.876-3.747-6.623zm11.241 1.22c-.871-3.747.871-7.842 3.398-8.365 2.44-.348 4.967 3.747 5.403 7.145.871 3.312-1.307 6.623-3.399 6.623-2.004.435-4.966-1.656-5.402-5.403z"/><path stroke-width=".522816" d="M474.984 105.321c0-4.095 2.527-7.842 5.054-7.842 2.876 0 4.967 4.531 4.967 7.842 0 3.399-2.44 6.274-4.967 6.274s-5.054-2.44-5.054-6.274z"/><path stroke-width=".522816" d="M467.49 107.413c0-3.747 2.963-7.843 5.403-7.843 2.614 0 5.054 4.967 5.054 7.843 0 3.398-2.963 6.274-5.054 6.274-2.44 0-5.403-2.44-5.403-6.274zm15.424-1.656c0-3.747 2.614-7.842 5.053-7.842 2.876 0 4.967 4.967 4.967 7.842 0 3.398-2.44 6.274-4.967 6.274s-5.053-2.527-5.053-6.274z"/><path stroke-width=".522816" d="M481.258 109.155c0-4.182 2.963-7.929 5.402-7.929 2.614 0 5.054 4.531 5.054 7.842 0 3.399-2.527 6.361-5.054 6.361-2.44 0-5.402-2.614-5.402-6.274z"/><path stroke-width=".522816" d="M474.636 112.902c0-4.182 2.44-7.93 4.966-7.93 2.963 0 5.054 4.968 5.054 7.843 0 3.486-2.614 6.361-5.054 6.361-2.527 0-5.053-2.614-5.053-6.274zm-10.457 0c0-4.182 2.092-7.93 4.183-7.93s3.747 4.968 3.747 7.843c0 3.486-2.092 6.361-3.747 6.361-2.091 0-4.183-2.614-4.183-6.274zm23.353-.784c0-3.834 2.091-7.58 4.182-7.58s4.183 4.617 4.183 7.493c0 3.747-2.527 6.274-4.183 6.274-2.091 0-4.182-2.527-4.182-6.274z"/><path stroke-width=".522816" d="M490.059 119.089c.871-4.095 3.31-7.494 4.966-6.97 1.743.348 2.092 5.314 1.308 8.277-.436 3.747-2.963 5.838-4.619 5.402-1.742-.348-2.527-3.31-1.742-6.622z"/><path stroke-width=".522816" d="M482.13 117.87c.435-3.748 2.875-7.495 4.966-7.059 2.527 0 3.747 4.967 3.398 7.842-.435 3.834-2.614 6.361-4.618 5.926-2.091 0-4.182-2.963-3.747-6.71zm-11.677 1.219c-1.307-4.095-3.834-6.97-5.49-6.622-1.655.435-2.09 5.402-1.22 8.365.872 3.31 3.312 5.402 4.967 4.966 1.307-.348 2.614-3.31 1.743-6.622z"/><path stroke-width=".522816" d="M467.49 118.305c0-3.747 2.092-7.494 4.183-7.494 2.527 0 4.183 4.618 4.183 7.494 0 3.747-2.092 6.274-4.183 6.274-1.743 0-4.183-2.527-4.183-6.274z"/><path stroke-width=".522816" d="M473.764 119.96c0-4.182 2.527-7.842 4.967-7.842 2.963 0 5.054 4.531 5.054 7.842 0 3.399-2.527 6.274-5.054 6.274-2.44 0-4.967-2.527-4.967-6.274zm2.092-45.92c-.872 3.31-3.747 6.273-1.743 10.892-3.66-1.307-6.971-1.743-9.934 1.655 3.747-.435 7.058.872 8.714 3.311-3.311-.435-4.967 1.307-5.838 3.399 2.962-.872 5.838-1.743 7.145-1.307-1.307 1.307-3.398 3.31-3.747 5.054 2.44-2.092 5.403-1.743 7.058-2.963-1.22 2.963 1.22 5.838 3.311 8.714-.348-4.096 2.092-6.971.872-9.15 3.747.872 4.182 4.183 9.585 4.183-2.092-1.22-3.312-5.403-5.838-5.403 1.22-.435 6.273-.871 7.145 0-.872-1.742-3.834-3.31-5.49-3.31 1.743-1.744 4.618-5.055 6.71-5.926-2.963.436-7.494.871-9.15 3.398 4.096-3.398 3.311-9.585 7.843-10.456-2.44-.436-6.187 1.22-9.15 4.182 1.307-2.527 1.307-5.838 2.963-6.709-3.398.871-7.145 5.054-8.365 7.145a15.7 15.7 0 0 0-2.091-6.71z"/><path stroke-width=".522816" d="M477.947 80.75c0 1.219 0 3.746-.436 4.53m5.838-4.967c-.871.872-2.527 3.747-2.527 6.274"/><path fill="none" stroke-width=".522816" d="M485.876 85.28a6.62 6.62 0 0 0-2.962 3.834"/></g><g fill="#059334"><path stroke-width="1.2199039999999999" d="M441.611 126.67c-2.963 0-5.402-1.22-7.145-3.311-2.876-3.834-10.805-5.49-14.203-2.092-1.22.872-2.876.872-4.096 1.22-2.09 0-4.618 2.092-3.834 6.274 1.743-1.307 2.092 0 3.399 0 .871-.436.435.436.435 1.22 0 2.091 4.531 6.274 8.714 5.838 4.618 0 6.71 1.743 7.494 2.614 1.307 1.133.435.784 1.307 2.876 1.22 1.22 1.655 1.655-.436 3.31a8.452 8.452 0 0 0 0 12.984c5.402 4.095 19.17 10.456 34.68-1.743 14.988-11.676 38.34-4.966 40.083-.871 2.091 4.27 2.875 6.71 3.31 8.8.437 1.743 2.528 3.399 5.49 2.963 2.876 0 6.187 1.22 7.843 2.527 2.178 1.22 5.054.872 4.27-2.962-1.743-11.677-8.801-13.332-9.586-18.735 4.096.349 6.971.349 8.714-1.307 1.22-1.655 2.876-4.618 4.618-5.402 1.22-.871 1.22-1.743-.435-1.307-2.092.436-3.312 1.307-7.146.871-19.17-2.091-73.02-16.73-83.476-13.767z"/><path fill="#000" stroke-width="1.2199039999999999" d="M526.83 140.873a30.3 30.3 0 0 0-8.016 8.365c-4.096 5.402-16.643 10.805-32.154 10.805-14.987 0-24.136-2.44-30.846-7.842a52.8 52.8 0 0 0-9.236-5.926c-4.531-2.09-5.403-6.71-4.183-10.456-1.22 2.091-2.004 4.183-4.53 3.747-1.743 0-5.055 0-4.183 1.743-.436-.872-.436-2.092-.872-2.614l-.871-.785c1.307.872 4.27-1.655 6.36-1.655 1.657.435 3.748-1.656 3.312-4.183l-1.22-5.402c3.311-1.743 47.14 6.274 55.942 7.058 8.713.435 33.808 4.182 30.497 7.145z"/><path stroke-width="1.2199039999999999" d="M447.45 125.014c4.182-4.182 9.148-6.274 14.202-5.054h1.22c2.614-2.09 8.365-2.527 11.764-.871h1.655c4.967-1.656 14.552 0 17.95 3.398l1.22.872c11.328-.872 17.95 4.095 25.88 12.112.87.87 2.09 2.44 4.182 2.875 2.527.436 2.963 1.743.871 2.963a32.9 32.9 0 0 0-8.713 7.842c-3.834 5.054-15.946 10.108-31.02 10.108-14.552 0-23.353-2.614-30.063-7.581-3.746-2.876-6.622-4.531-8.713-5.838-2.527-.872-5.838-4.183-4.618-7.494.871-3.311-1.22-7.494-2.876-11.676 1.22-.872 4.531-2.091 6.187-1.22z"/><g fill="#00493d"><path stroke-width="1.2199039999999999" d="M521.34 135.47c-7.842-8.016-14.551-12.983-25.879-12.199 0 .436 0 1.743-.436 2.615a57.8 57.8 0 0 1 20.477 15.423c1.743-1.743 4.619-3.747 5.839-5.838zm-27.099-12.983c-3.398-3.31-12.983-5.054-17.95-3.31 0 1.655 0 4.182-.871 5.837 2.962 1.22 5.402 4.183 7.93 7.058 1.742-.435 5.837-1.655 7.929-2.091a38.3 38.3 0 0 0 2.962-7.494zm-19.605-3.398c-3.399-1.656-9.237-1.22-11.764.871-.871 1.743-1.22 5.054-1.22 6.71 1.743 0 4.183 1.22 4.967 2.091 2.614-.871 5.925-2.527 7.145-3.747.436-1.743 1.22-4.182.872-5.838zm-27.187 5.925c4.183-4.182 9.15-6.274 14.203-5.054-.871 1.307-1.22 3.747-1.22 6.274-4.618-.436-10.456.871-12.983 2.527z"/><path stroke-width="1.2199039999999999" d="M513.847 142.093a55.9 55.9 0 0 0-19.17-14.639c0 .436-.871 2.091-1.307 3.398 2.527 3.747 7.494 12.112 9.585 16.73 2.091-.87 7.93-3.398 10.892-5.49zm-31.718 9.236a156 156 0 0 0 1.22-17.166c2.092-.435 6.274-1.655 7.93-2.09 2.09 3.398 7.145 12.198 9.236 16.294-5.054 1.22-13.419 3.31-18.386 2.962zm-14.639-20.041c2.092-.871 5.054-2.614 7.059-4.183 1.742 1.22 5.053 4.183 6.273 5.839 0 3.746-1.22 14.638-1.655 18.298-3.311 0-8.714-.784-11.677-2.44.436-6.273.872-13.331 0-17.514zm-20.912 4.967c.436-.872.871-3.747.871-4.967 3.311-2.091 11.676-4.183 17.95-.871.436 4.182 0 14.638-.435 17.165a84 84 0 0 0-18.299-11.327z"/></g><g fill="none"><path fill="#000" stroke="none" d="M425.752 128.674c-.871 0-1.307-2.44-2.962-2.44-.436 0-1.656.436-2.092 0 0 .871.436 1.743.872 2.091.436 1.22 2.527.436 4.182.436z"/><path stroke-width="1.2199039999999999" d="M425.752 135.82c4.967 0 5.838-6.275 8.365-6.623m-5.49 7.058c3.748 1.742 6.71-7.058 9.586-6.71m-17.079-4.095c1.22 0 2.091-1.743 4.183.348.871.872 2.09 1.307 2.962 1.307m-.871 4.532c-1.743 2.614-4.618 4.182-6.274 3.398m-.871-13.768c-1.22.872-2.004 2.44-2.876 3.747m-1.22 2.44v2.091"/></g></g></g><g stroke-width="1.4" transform="translate(-306.8 -21.2)scale(.87136)"><path fill="#fff" d="M989.7 233v93.4c0 81-38.3 108.8-89.6 130.8-51.3-22-90-49.8-90-130.8v-93.5h179.6z"/><path fill="#c8102e" d="M900.1 312c4.3 0 11-3.8 16.8-9.6 6.2-6.7 16.8-9 27.8 0 11 9.1 17.7 5.3 23.5 0 5.7-5.2 10.5-7.2 21.5-7.2V233H810v62.3c11 0 15.8 2 21.6 7.2 5.7 5.3 12.4 9.1 23.5 0 11.5-9 21.5-6.7 28.2 0 5.3 5.8 12 9.6 16.8 9.6z"/><path fill="#0b50a0" d="M900.1 360c5.8 0 17.3-6.3 20.1-7.7 10.6-6.3 18.2-.5 24.5 2.4 6.7 2.8 19.1 6.2 26.8 0 7.7-6.3 12-5.8 17.3-5.8 1-7.2 1-14.4 1-22.5v-5.8c-6.8-1.4-10.1.5-17.3 6.8-7.2 6.2-15.4 4.8-26 1-10-4.4-20-12-30.1 0a24.2 24.2 0 0 1-16.3 8c-7.2 0-13.4-4.7-16.3-8-10.5-12-20.1-4.4-30.2 0-10.5 3.8-19.2 5.2-26.3-1-6.7-6.3-10.1-8.2-17.3-6.8v5.8c0 8.1.5 15.3 1.4 22.5 5.3 0 9.2-.5 16.8 5.8 7.7 6.2 20.6 2.8 26.9 0 6.7-2.9 14.3-8.7 24.9-2.4 2.9 1.4 13.9 7.6 20.1 7.6zm0 20.6a51 51 0 0 0 23.5-7.2c9.6-5.3 16.3-3 25.9 1.9 10 4.8 18.2 3.3 24 0 2.8-2 5.2-5.8 11.4-4.3-2.8 12-7.2 22.5-12.4 31.1a32.5 32.5 0 0 1-25-1.9c-10-4.8-22.5-7.7-29.2-3.4a36 36 0 0 1-18.2 5.8c-5.3 0-12-2-18.2-5.8-6.7-4.3-19.2-1.4-29.2 3.4a32.5 32.5 0 0 1-25 2c-5.2-8.7-9.5-19.3-12.4-31.2 6.2-1.5 8.6 2.4 11.5 4.3a23.9 23.9 0 0 0 23.5 0c10-4.8 16.7-7.2 26.3-2a51 51 0 0 0 23.5 7.3m0 76.6a191.9 191.9 0 0 0 51.3-29.7c-3.9-1.4-6.2-.5-9.6-2.9s-13.4-3.3-22 1.5a39 39 0 0 1-39.3 0c-8.7-4.8-18.7-3.9-22-1.5-3.4 2.4-5.8 1.5-9.7 3a184.7 184.7 0 0 0 51.3 29.6"/><g stroke="#000"><path fill="#f9d050" d="M887.6 256.4c.5 1-.4 3.4 0 4.3 1 2 1 3 2.4 3.9h3.4c10.5 0 23-4.3 33.5-4.3 10.1 0 16.3 3.3 22 3.3 3.4 0 6.3-2.4 6.3-4.8s-3.8-3.8-12-3.8c-11.5 0-17.7 2.9-27.3 2.9-14.4 0-16.8-5.3-16.8-7.7s2.4-5.7 10.1-5.7c2.4 0 4.3-.5 5.3-1.5.5-1 1.9-2.9 4.8-4.3 3.3-2 10 0 13.4-2.4 0 2-2.9 4.8-5.3 5.8 4.8-1.5 10-1.5 11 2.4-2.4-1.5-6.2-.5-7.6 0-2 .4-2.9 1-4.8 1.4 1.9-.5 2.9 3.3 5.7 3.3-2.8 2.4-7.6 2.4-12.4.5-1.5-.5-5.3-1.9-7.7-1.9-4.8 0-7.7 1-7.7 2.9 0 2.4 3 3.8 11.5 3.8 8.7 0 13.5-2.4 26.4-2.4-1-1.4.5-2.9-1.4-4.3 4.8 0 10 1.4 12 4.8-.5-3.4 2.3-6.2 1.4-9.1 2.9.5 5.3 3.3 5.7 5.7 0-1.4 2-1.4 2-2.8a7.4 7.4 0 0 1 3.8 7.6c1.4-2.4 2.9-1.4 3.8-4.3 1 2 .5 7.7-2.9 9.6 3-2 7.2-2 10.1 1.4-2.9-.4-4.3 1-5.7 1.5A44.4 44.4 0 0 1 948 267c-7.6-.5-8.6-2-13.4-2 2.9.5 8.6 6.3 14 6.3 3.3 0 5.7 0 7.1-.5s3.8 0 5.7 1c1.5 1.4 4.4 2.8 6.3 2.4-.5 1.9-1.5 2.8-2.9 3.3 2.4 1.5 1 2.4 3.4 4.3-1 0-2 1-3.4.5 1.4 1.4 1.4 3.4 2.9 4.3-.5 0-2 .5-2.9 0 1.4 2 0 4.3 1.4 5.3 1.5 2-1.4 4.3-3.8 2.4.5 1.4-1 2.9-2.4 2.4s-2.4-2-2-2.4c0-.5 0-.5.6-1-1 1.5-2.9 1.5-3.9 1-.4-.5-1-1-1-1.4-3.3 1-4.7-2-4.2-3.4.4-1.4 3.3-2 4.3-1.4 1 .4 1.9 1 2.9 0 1-.5 1.4-1.5 1.4-2.4 0-1.5-1.4-5.8-7.7-5.3-7.2.5-18.7-1.4-24.4-3.4-.5-.4-1-.4-1.5-1 0 2-1.9 3-1.9 4.9 0 2.4 1 4.3 3.9 5.2-1.5 2.4-3.9 2-4.8.5 0 1.5-2 2.4-2 4.3-.4-1-1-1.4-1.4-2.4-1.4 3.4-5.3 5.3-7.2 4.4-2.4 1.9-5.2 1.4-6.2-.5-1.4 1-3.4 1-4.3 0 0 1.4-1 1-1.5 2.9 0 1-1.9 1.4-2.8 1-1-.6-1.5-2.5-.5-3.4-1.4 1-2.9 1-3.8 0 0-1 0-2.4 1-3h.9c-1-.4-2.4 0-3.4-.4-1-1-1-2-.5-2.9.5-.5 2-1.4 3-.5l.4.5c0-1 .5-1.9 1-1.9 1-.5 2.3-.5 3.8 1 1 1.4 1.9 1.4 4.8 1 2.4 0 6.2-2.5 9-4.9-8-1.4-3.3-6.7-.9-8.6-1.9-.5-4.8-.5-6.7.5-10 5.3-20.6 11.5-27.3 9.6a6 6 0 0 0 1 2.8c-1.5 0-4.4 0-5.3-1.4-.5 1-1.4 3.4-.5 5.3-1-1-3.8-2-5.3-2.4 1 1 0 2.9.5 4.3-1.4-1.4-3.8-2.4-4.8-1.4s-2.9 1.4-4.3 1a7.5 7.5 0 0 1-3.8 2.8c0-1 0-2.4-.5-2.9-.5 1.5-2 3.4-3.8 4.3 0-1 0-2.4-.5-3.3 0 1.9-3.8 2.9-4.3 4.3.5-1.4.5-2.9.5-3.8a7.3 7.3 0 0 1-4.8 3.3c.4-1 1-2 .4-2.9-.4 2-3.3 3-5.7 2.4 0 1-2 2.4-4.3 1-1.5-.5-2.4-2-1.5-2.9-1.9 0-3.8-1.9-2.8-3.3 0-.5.4-1 .4-1.5-1.4-1-1.9-2.9-.4-4.3.4-.5 1.9-.5 2.8-.5 0-3.8 3.4-3.8 4.8-1 1 1.5 3.9 3.9 6.3 3.4 1 0 1.4-.5 2.4-.5a43 43 0 0 0 12-6.2c.4-1.4.4-2.4.4-3.3-1.9 1-3.8 1.9-4.8 3.3v-1.4c-1.4 0-3.8-.5-4.8-.5.5-.5 1-2.9 2-3.4-2.4.5-4.8 0-6.8-.4 1-1 1-2.4 1.5-3.9-1 .5-3.4-.4-5.3 0 .5-1.4 1-3.3 2.4-3.8-2 .5-4.3 0-6.7-1 2 0 2.9-2.4 4.3-2.4-3.8 0-4.8-1.9-6.7-2.8 1.4.4 2.4-1 3.8-1-1.4-.5-3.8-2.9-2.8-4.3-.5.5-1 1.4-2 2-1 .4-2.8 0-4.3-1.5-1-2-.5-4.3 1.5-4.8a2.3 2.3 0 0 1-1.5-3.9c.5-1 2.4-2.3 3.4-1l1.4 2c-.5-1-.5-2.9-.5-4.3.5-1.4 1.5-1.4 3-2 1.3 0 2.3 1.5 2.3 3 0 1.4.5 2.3 1 4.3l.4-2c0-1.9 2.4-1.4 3.9-1 1.4.6 1.9 3.4 0 4.9-1 1-.5 2.4.5 3.3 3.3 5.3 9 9.6 13.9 10.1 0-2 1-3.8 2.4-5.3 0-1 .4-2.4 1-3.3.4-2.9 1.8-4.3 3.7-3.4-.4-.5-1-1-1-1.4-1.4-1.5-2.8-3.9-1.8-5.8s3.8-1.4 4.8-.4c-.5-3 2.8-5.3 2.8-6.8.5 1.5 1.5 3.4 1 4.8.5-1.9 3.8-4.3 6.2-5.2-1 1.4 2 3.8 1.5 5.2 1-2.4 4.8-3.8 7.6-3.8-1 1-1 2.9-1 3.8 1.5 0 4-.4 4.9-1.9 0 2-1 3.9-2 4.8.5-.5 2.4-.5 3.9-.5-1.5 1.5-1 3-2.4 3.9 1.9-1 4.3-1 4.8 1 1 1.4-.5 3.8-1.5 5.2-1 .5-1.9 1.4-2.4 1.4z"/><g fill="none"><path d="M858 262.2c-3.4 1.4-4.4 4.8-4.9 6.7"/><path d="M857.5 265.5c-4.8 3-6.8 5.3-5.8 10.6m8.1 3.9c3-1 4.8-2 7.2-6.3"/><path d="M865.6 275.6c-1 2 0 5.3-1.4 6.7a8.8 8.8 0 0 0 4.8-6.7"/><path d="M866.6 280.9c1.9-1 4.8-3.9 6.2-7.2-.5 1.4 0 3.8-1 5.3 2.4-2.4 3.4-3.9 3.9-6.3l.4 2c1-1 2-2 2-3.9m-.1 1.4v2.4c2-1.4 2.5-3.3 2.5-5.7"/><path d="M880 271.8c2.9-2 3.3-4.8 3.3-9.1m0 4.8c2-1.5 2.4-2.4 2.4-6.8m-6.2-12.9c-1 0-2 .5-2 2 0 .9-1.4 2.3-1.4 3.8-.4 1.9-1.4 2.4-2.8 1.9-1.5-1-1.5-1-1.5-2.4 0-2 2.4-2.4 2.4-4.3.5-1 1-2.4 1.5-2.4-2.4 1.4-5.8.4-6.3-2.4"/><path d="M883.8 249.2c-1 .5-2-1-3.3-.4-.5 0-2 .4-2.4 0"/><path d="M877.1 251.6c.5.5 2.9 1.5 5.3.5-2 .5-3.4-1.9-1.5-3.3m-8.1-2c-2 0-3.4 1.5-2.9 3 .5 1.4 2.4 1.4 3.8.4m-4.3 20.6c.5-.5 1-1.4 1-2 1 0 2-.4 2.4-.9 1.9 0 3.3-1.4 3.8-2.8 1 0 1.5-2.4 2-3.4.4.5 1.4 0 1.9-2 1 .6 2.4 0 2.8-1.4m-19.6-3.3c0 .5-1 1.4-2 2 .5.9 0 3.3-.9 3.7.5 1 0 2.4-.5 3.4 0 .5.5 2 .5 2.4m4.8-21.1c-1 2.4-.5 5.3 1.4 5.8"/><path d="M866.6 253c-.5 2.5-.5 5.8-1 7.3-.5 1-1.4 4.3 2.4 5.2 4.3 1 6.7.5 9.1-6.7m7.2 18.7c0 .5-.5 1.5-1.4 1.5m4.7-2.4c0 1-1 2.4-1.4 2.8m4.8-3.8c0 1 0 2.4-1 2.9m-28.2-32.6c.4 0 1 1 1.4 1.9-1.4-1-2.9 1.4-2 2.9m-.9 3.3-1.9 1.5m.5 2.8c-.5 0-1 .5-1.4.5m-21.6-9.1c0-.5 0-.5.5-1m-4.8-.4c-.5 0-.5 0-1-.5m1.4 7.2h1m-2.9-2.9a5 5 0 0 0-2.8-1.4m29.2 19.2c-3.4 2.8-4.8 5.2-5.3 8.6m8.6-6.3a11 11 0 0 1-3.8 4.4m-14.8 10a11 11 0 0 1-9.6-1.4c-.5-.5-1-.5-1.5-1m25.4-4.2c-.4 1.8-1 4.2-1.9 4.7 3.9-2 7.2-4.8 7.7-9.1M827.7 289c1.5-.5 3 .5 3.9-.5m79.5-15.3c1 .5 2.4 1 2.9 1.4.5-1 2.4-2.4 3.8-2.8m-40.7 11.5c-.5-2 .5-4.3 3.4-5.3m-22.1 13.4c.5-1 .5-2.4 1-3.3m-22.1 4.8c-.5 1-1.4 1.9-1.4 2.8m-5.8-1.9s0-.5.5-.5c1-.4 2.4-1.4 2.9-2.4m61.8-3.8c-1 .5-1.4 0-1.9-.5m1.4 2.9s-.4.5-1 .5m3.4 1.9c-.5.5-1 1-1.4 1m15.3 0c1-.5 1.5-1.5 2-3.4m-8.2 2.9c1.4-.5 2.4-1.5 3.8-2.9m9.6-1c0-1 0-1.9.5-2.8m35 7.2c-1-1-1-2.4.5-3.4 1-.5 1.4-1 2.4-1.4"/><path d="M924.5 276c-7.6-3.3-7.1-7.6-13.4-7.1m47.5 22.1c.5.4 0 1.9 0 2.3m4.3-2.3c-.5 1.4-.5 1.9-.5 3.3M926 245.9h-4m-36.3 16.3c0 1 1.5 2.9 5.3 2.9-.5 0-1-.5-1-.5m-2.4-8.2c-.4.5-1 0-1 0-.9-1 .6-2.8 2-3.8-1.4.5-2.4.5-3.4.5-1 2.9-3.8 4.3-5.7 2.4-.5 1.9-2.9 4.3-4.8 3.8-2-1-2.4-2.4-2-3.8-2.3 2.8-5.2 1-6.1 0-.5-1 0-3.4 1-6.3"/></g><path stroke="none" d="M918.3 274.6c-1.4 1-2.9 0-4.3 1.5-1 1 .5 1.4 1.4 1.4-.4 1.5-.4 2 2 2-1 1.4 1.9 1.9 1.4 3.8a4.6 4.6 0 0 0 1-4.8c-.5-1.5-3-2.4-1.5-3.9"/><path fill="#073163" stroke="none" d="M874.7 259.3c-2-1-2.4-2.4-2-3.8-.4 1-1.3 1.4-2.3 1.4-2 4.3-4.3 8.2-7.2 8.2-3.4.4-2.9 3.8-.5 3.8 5.3 1 7.7-1 12-9.6m-47.4-11.5c1.4-1.4.4-2.9-.5-3.3-1.5-.5-4.3 0-5.8 2.3 1.5-.4 3-.4 3.4.5.5 1 1.4 2 2.9.5m2.4-8.6c3.3 0 4.3.5 4.7 1.9.5 1-.4 2.4-1.4 2.4-1.4 0-2.9-1-2.4-1.4.5-1 .5-2.4-1-3zm9.5 7.6c2.4.5 3.4-1 2-2.8-.5-1.5-2-2.4-4.4-2 2.4 1.5 0 3.9 2.4 4.8m-17.7 8.2a4 4 0 0 0 4.8 2c1.4-.6 2-2 1.4-3-1-1.4-2.4-1.9-2.8 0-1 2-2.4 1.5-3.4 1m7.2 29.2c-1-1.9-3.8-1.9-6.2 0 1-.5 2.8 0 3.3 1s1.5 1 2 1c.4-.5 1.4-1 .9-2m3.8-2.8c0-2.4-3.3-3-5.2-2 1 0 2.4 1 2.4 2 .4 1 1.4 1.4 1.9 1.4 1-.5 1.4-1 1-1.4zm-4.8 8.6c-2.8-.5-4.3 2.9-4.3 5.2.5-1.4 2-2.3 3.4-1.9 1.4 0 1.9-.4 1.9-1.4.5-1 0-1.4-1-2zm.5 8.1c1 .5 2-.5 2.4-1.9 0-1 2-1 2.4-.5 1 .5 1 2.4-.5 3.4-1 .5-3.3 1-4.3-1m66.6-14.4c-1-.4-3.3-1.4-5.2 0 1.4-.4 2.4.5 2.8 1.5 0 1 1.5 1.4 2 .5.4-.5 1-1.5.4-2m-4.3 3.4c-1.9-1-4.3 1.4-4.8 3.4a7 7 0 0 1 3.4-1.5c1 .5 1.9 0 1.9-1 .5-.4.5-.9-.5-.9m2.5 3.9c-1.5 0-3.4 1.9-3.4 3.8.4-1 1.4-1.5 2.4-1 1 0 2.4-.5 2.4-1.4q0-1.5-1.5-1.5zm4.2 3.8c-1-.5-2.4 0-2.4 1.4s0 2.9-.4 3.4c1-1 1.9-1.5 2.8-2 .5-.4 1-1.9 0-2.8m54.2-4.3c-1-1-2.4-.5-2.9.4-.5 1-1 3.4 0 5.3 0-1 1-2.4 2-2.4 1.4-.5 1.8-2.4.9-3.3m2.9 1.9c-2 1-2 4.3-.5 6.2 0-1 .5-2.4 1.4-2.9 1.5 0 2-1.9 1.5-2.8-1-1-2-.5-2.4-.5m5.7 1.9c-1-.5-2 .5-2 1.4-.4 1.5.6 3.4 2 4.3 0-1 .5-1.9 1-2.4 1.4-1 1-2.8-1-3.3m4.3-.5c-1 0-1.9 1.4-1 2.9.5 1 1.5 1.4 3.4 1-.5 0-1.4-1.5-1-2 .5-1 0-1.9-1.4-1.9"/></g><g id="h"><path fill="#f9d050" d="m831.1 383.4 24-73.8 24 73.8-62.9-45.5H894Z"/><path fill="#024919" d="m835.9 376.7 49.8-36.4h-61.3l49.3 36.4-18.6-58.4z"/></g><use xlink:href="#h" width="100%" height="100%" x="90.1"/><use xlink:href="#h" width="100%" height="100%" x="45" y="52.2"/><path fill="none" stroke="#000" d="M989.7 233v93.4c0 81-38.3 108.8-89.6 130.8-51.3-22-90-49.8-90-130.8v-93.5h179.6z"/></g></svg>