<svg xmlns="http://www.w3.org/2000/svg" xmlns:xlink="http://www.w3.org/1999/xlink" viewBox="0 0 512 512"><defs><g id="b" fill="#fcea83"><path d="M754.4 449.6c2.9 7.6 23.5 17.7 47.5 4.8 16.3-9.2 26.8-22 36.9-45 2.8-5.8 4.3-13-2.4-17.3-5.3-3.9-14-8.2-17.8-12-1.9-2-3.8-3.4-5.2-4.8 1 1 1.9 1.9 2.8 3.3 9.6 11.5-.4 28.3-11 38.4-7.7 7.2-21.5 24.9-41.7 8.1-4.3-3.8-14.4 12-9 24.5zm291.4 0c-3.4 7.6-24 17.7-47.5 4.8-16.2-9.2-26.8-22-37.3-45-2.4-5.8-3.9-13 2.8-17.3 5.3-3.9 14-8.2 17.8-12 1.9-2 3.3-3.4 5.2-4.8-1 1-1.9 1.9-2.8 3.3-9.6 11.5.4 28.3 10.5 38.4 7.7 7.2 22 24.9 42.2 8.1 4.3-3.8 13.9 12 9 24.5z"/><path d="M900.1 490.8c38.3 0 97.3-17.3 129-77.7 5.2-10 0-15.3-6.3-18.6a73 73 0 0 1-19.2-14c7.7 7.7 6.2 13 1 21.6-24.5 40.8-58 61.4-104.5 61.4s-80-20.6-104.5-61.4c-5.2-8.6-6.7-13.9.5-21.5a66 66 0 0 1-19.2 13.9c-6.2 3.3-11.5 8.6-6.2 18.6 31.6 60.4 91 77.7 129.4 77.7"/></g><g id="d" fill="#073163"><path fill="#fff" d="M863.2 232.5c-6.2 1.4-10.5 1.9-16.3-3.4-3.8-3.8-2.9-10.5 1-13 4.3-2.8 8.1-4.7 13.4-3.3 5.3 1.5 19.2 14.4 15.8 14.9-3.4 0-8.6 3.3-13.9 4.8m14.8-23c2-1.5 4.4-2.4 10.6-3 5.8-.4 10-.4 11.5 4 2 5.2 3.4 11.4 7.2 14.3-2.4 1.4-14.4 2.9-18.7.5-5.7-2.9-7.2-14-10.5-15.8zm41.3.5c1.9-1.5 4.3-1.5 10.5-1s8.6 1 10 5.3c1.5 4.8 0 11 3 15.3-3 1-12.5 1-15.9-2.4-5.2-3.8-4.8-14.9-7.6-17.3z"/><path d="M948 212.8c-4.3-1-7.2-1.4-9 0 2.3 2.9.4 14.4 5.2 18.2 3.3 2.4 12 3 13.9-2.4 2.4-4.8 2.4-12-10-15.8zm-49.3-4.8c1.4-1.4 4.3-1.9 10-1.9 6.3 0 10 1 12 4.8 2 4.8 1.4 11 4.8 14.9-1.4 1.9-14.4 1.9-18.2-1-5.3-3.4-5.8-14.4-8.6-16.8m-40.7 4.3c0-2.4 3.3-2.8 12-3.3 8.5-1 9-.5 11.9 5.7 1.4 3.4 3.3 9.1 7.2 11-10.6 2.5-14 3.9-19.7.5a29.2 29.2 0 0 1-10-10.5c-.5-1.4-.5-2.9-1.5-3.4z"/></g><g id="f"><path d="M881 163.5c-10.1-7.7-22.1-14.9-33.1-16.3a280 280 0 0 1 32.6 25.4"/><path d="M886.7 156.3c-12-8.2-25.9-17.3-39.3-18.2a124 124 0 0 1 33 27.8m21.6-23a93 93 0 0 1 23.5-32.2c-4.8 10.1-10 30.7-12.5 38.9"/><path d="M912.6 140.5A48.4 48.4 0 0 1 937 115a101.2 101.2 0 0 0-18.2 35"/><path d="M916.9 150a84.5 84.5 0 0 1 37.8-31.6c-12 12-29.7 34-34 42.7m2.9-.5c8.6-4.8 25.9-12.5 38.3-10-7.6 2.8-30.6 13.3-40.7 23"/><path d="M921.7 157.2c8.1-8.6 23-21.5 38.8-26.8-11.5 11-36 36-39.3 39.8M898.7 152c-5.8-17.8-14.4-34.5-27.3-39.8a130.9 130.9 0 0 1 21 48.9m-4.8-9.6c-9.5-11.5-22.5-23-37.3-25.4a90.1 90.1 0 0 1 33 38.8"/><path d="M893 151c-12-21.6-21.2-25.4-26.4-29.7 4.3 8.1 14.8 29.7 21 38.8"/><path fill="none" d="M869 149.6a57.7 57.7 0 0 1 17.2 16.7"/><path d="M869 159.6c2.8 2.4 8.1 5.3 12.9 9.6m44.1-2.4c4.8-3.8 15.3-10 20.6-12m-24 8.7c4.8-6.3 14.4-14.9 17.8-17.8m-4.4-12a287 287 0 0 0-18.2 22.6m5.8-26.9a157 157 0 0 0-12 21.1m-25.9-20.1c2.9 7.7 8.2 20.6 10 25.9m-14.3-17.8c2 3 5.8 9.6 7.2 14.4"/></g><g id="g"><path d="M897.7 136.1c0-4.3 2.9-9 5.8-9 3.3 0 5.7 5.7 5.7 9 0 3.9-2.9 7.2-5.7 7.2-3 0-5.8-2.8-5.8-7.2"/><path d="M891.5 140c.5-4.8 3.8-8.6 6.7-8.2 2.9.5 4.3 6.3 3.8 9.6-.5 3.8-3.8 6.7-6.2 6.2-2.4 0-4.8-3.3-4.3-7.6m12.9 1.4c-1-4.3 1-9 3.9-9.6 2.8-.4 5.7 4.3 6.2 8.2 1 3.8-1.5 7.6-3.9 7.6-2.3.5-5.7-1.9-6.2-6.2"/><path d="M897.2 145.2c0-4.7 2.9-9 5.8-9 3.3 0 5.7 5.2 5.7 9 0 3.9-2.8 7.2-5.7 7.2s-5.8-2.8-5.8-7.2"/><path d="M888.6 147.6c0-4.3 3.4-9 6.2-9 3 0 5.8 5.7 5.8 9 0 3.9-3.4 7.2-5.8 7.2-2.8 0-6.2-2.8-6.2-7.2m17.7-1.9c0-4.3 3-9 5.8-9 3.3 0 5.7 5.7 5.7 9 0 3.9-2.8 7.2-5.7 7.2s-5.8-2.9-5.8-7.2"/><path d="M904.4 149.6c0-4.8 3.4-9.1 6.2-9.1 3 0 5.8 5.2 5.8 9 0 3.9-2.9 7.3-5.8 7.3-2.8 0-6.2-3-6.2-7.2"/><path d="M896.8 153.9c0-4.8 2.8-9.1 5.7-9.1 3.4 0 5.8 5.7 5.8 9 0 4-3 7.3-5.8 7.3-2.9 0-5.8-3-5.8-7.2zm-12 0c0-4.8 2.4-9.1 4.8-9.1s4.3 5.7 4.3 9c0 4-2.4 7.3-4.3 7.3-2.4 0-4.8-3-4.8-7.2m26.8-.9c0-4.4 2.4-8.7 4.8-8.7s4.8 5.3 4.8 8.6c0 4.3-2.9 7.2-4.8 7.2-2.4 0-4.8-2.9-4.8-7.2z"/><path d="M914.5 161c1-4.7 3.8-8.6 5.7-8 2 .4 2.4 6.1 1.5 9.5-.5 4.3-3.4 6.7-5.3 6.2-2-.4-2.9-3.8-2-7.6z"/><path d="M905.4 159.6c.5-4.3 3.3-8.6 5.7-8.1 2.9 0 4.3 5.7 3.9 9-.5 4.4-3 7.3-5.3 6.8-2.4 0-4.8-3.4-4.3-7.7M892 161c-1.5-4.7-4.4-8-6.3-7.6-1.9.5-2.4 6.2-1.4 9.6 1 3.8 3.8 6.2 5.7 5.7 1.5-.4 3-3.8 2-7.6z"/><path d="M888.6 160.1c0-4.3 2.4-8.6 4.8-8.6 2.9 0 4.8 5.3 4.8 8.6 0 4.3-2.4 7.2-4.8 7.2-2 0-4.8-2.9-4.8-7.2"/><path d="M895.8 162c0-4.8 2.9-9 5.7-9 3.4 0 5.8 5.2 5.8 9 0 3.9-2.9 7.2-5.8 7.2-2.8 0-5.7-2.9-5.7-7.2m2.4-52.7c-1 3.8-4.3 7.2-2 12.5-4.2-1.5-8-2-11.4 1.9 4.3-.5 8.1 1 10 3.8-3.8-.5-5.7 1.5-6.7 3.9 3.4-1 6.7-2 8.2-1.5-1.5 1.5-3.9 3.8-4.3 5.8 2.8-2.4 6.2-2 8.1-3.4-1.4 3.4 1.4 6.7 3.8 10-.4-4.7 2.4-8 1-10.5 4.3 1 4.8 4.8 11 4.8-2.4-1.4-3.8-6.2-6.7-6.2 1.4-.5 7.2-1 8.2 0-1-2-4.4-3.8-6.3-3.8 2-2 5.3-5.8 7.7-6.8-3.4.5-8.6 1-10.5 3.9 4.7-3.9 3.8-11 9-12-2.8-.5-7.1 1.4-10.5 4.8 1.5-2.9 1.5-6.7 3.4-7.7-3.9 1-8.2 5.8-9.6 8.2a18 18 0 0 0-2.4-7.7"/><path d="M900.6 117c0 1.4 0 4.3-.5 5.2m6.7-5.7c-1 1-2.9 4.3-2.9 7.2"/><path fill="none" d="M909.7 122.2a7.6 7.6 0 0 0-3.4 4.4"/></g><g id="e" fill="#059334"><path d="M858.9 169.7c-3.4 0-6.2-1.4-8.2-3.8-3.3-4.4-12.4-6.3-16.3-2.4-1.4 1-3.3 1-4.7 1.4-2.4 0-5.3 2.4-4.4 7.2 2-1.5 2.4 0 3.9 0 1-.5.5.5.5 1.4 0 2.4 5.2 7.2 10 6.7 5.3 0 7.7 2 8.6 3 1.5 1.3.5.9 1.5 3.3 1.4 1.4 1.9 1.9-.5 3.8a9.7 9.7 0 0 0 0 14.9c6.2 4.7 22 12 39.8-2 17.2-13.4 44-5.7 46-1 2.4 4.9 3.3 7.7 3.8 10.1.5 2 2.9 3.9 6.3 3.4 3.3 0 7.1 1.4 9 2.9 2.5 1.4 5.8 1 4.9-3.4-2-13.4-10.1-15.3-11-21.5 4.7.4 8 .4 10-1.5 1.4-1.9 3.3-5.3 5.3-6.2 1.4-1 1.4-2-.5-1.5-2.4.5-3.8 1.5-8.2 1-22-2.4-83.8-19.2-95.8-15.8"/><path fill="#000" d="M956.7 186a34.8 34.8 0 0 0-9.2 9.6c-4.7 6.2-19.1 12.4-36.9 12.4-17.2 0-27.7-2.8-35.4-9a60.6 60.6 0 0 0-10.6-6.8c-5.2-2.4-6.2-7.7-4.8-12-1.4 2.4-2.3 4.8-5.2 4.3-2 0-5.8 0-4.8 2-.5-1-.5-2.4-1-3l-1-.9c1.5 1 4.9-1.9 7.3-1.9 1.9.5 4.3-1.9 3.8-4.8l-1.4-6.2c3.8-2 54.1 7.2 64.2 8.1 10 .5 38.8 4.8 35 8.2"/><path d="M865.6 167.8c4.8-4.8 10.5-7.2 16.3-5.8h1.4c3-2.4 9.6-2.9 13.5-1h1.9c5.7-1.9 16.7 0 20.6 3.9l1.4 1c13-1 20.6 4.7 29.7 13.9 1 1 2.4 2.8 4.8 3.3 2.9.5 3.4 2 1 3.4a37.8 37.8 0 0 0-10 9c-4.4 5.8-18.3 11.6-35.6 11.6-16.7 0-26.8-3-34.5-8.7-4.3-3.3-7.6-5.2-10-6.7-2.9-1-6.7-4.8-5.3-8.6 1-3.8-1.4-8.6-3.3-13.4 1.4-1 5.2-2.4 7.1-1.4z"/><g fill="#00493d"><path d="M950.4 179.8c-9-9.2-16.7-14.9-29.7-14 0 .5 0 2-.5 3a66.3 66.3 0 0 1 23.5 17.7c2-2 5.3-4.3 6.7-6.7m-31.1-14.9c-3.9-3.8-14.9-5.8-20.6-3.8 0 1.9 0 4.8-1 6.7 3.4 1.4 6.2 4.8 9.1 8.1 2-.5 6.7-1.9 9.1-2.4a44 44 0 0 0 3.4-8.6m-22.5-3.9c-3.9-1.9-10.6-1.4-13.5 1-1 2-1.4 5.8-1.4 7.7 2 0 4.8 1.4 5.7 2.4 3-1 6.8-2.9 8.2-4.3.5-2 1.4-4.8 1-6.7zm-31.2 6.8c4.8-4.8 10.5-7.2 16.3-5.8-1 1.5-1.4 4.3-1.4 7.2-5.3-.5-12 1-14.9 2.9z"/><path d="M941.8 187.4a64.2 64.2 0 0 0-22-16.8c0 .5-1 2.4-1.5 3.9 2.9 4.3 8.6 13.9 11 19.2 2.4-1 9.1-3.9 12.5-6.3M905.4 198a179 179 0 0 0 1.4-19.7c2.4-.5 7.2-1.9 9.1-2.4 2.4 3.9 8.2 14 10.6 18.7-5.8 1.4-15.4 3.8-21.1 3.4m-16.8-23c2.4-1 5.8-3 8.1-4.8 2 1.4 5.8 4.8 7.2 6.7 0 4.3-1.4 16.8-1.9 21-3.8 0-10-.9-13.4-2.8.5-7.2 1-15.3 0-20.1m-24 5.7c.5-1 1-4.3 1-5.7 3.8-2.4 13.4-4.8 20.6-1 .5 4.8 0 16.8-.5 19.7a96.4 96.4 0 0 0-21-13z"/></g><g fill="none"><path fill="#000" d="M840.7 172c-1 0-1.5-2.8-3.4-2.8-.5 0-1.9.5-2.4 0 0 1 .5 2 1 2.4.5 1.4 2.9.5 4.8.5z"/><path d="M840.7 180.2c5.7 0 6.7-7.2 9.6-7.6m-6.3 8.1c4.3 2 7.7-8.1 11-7.7m-19.6-4.7c1.4 0 2.4-2 4.8.4 1 1 2.4 1.5 3.4 1.5m-1 5.2c-2 3-5.3 4.8-7.2 3.9m-1-15.8c-1.4 1-2.3 2.8-3.3 4.3m-1.4 2.8v2.4"/></g></g><path id="a" fill="#fff" d="M989.7 233v93.4c0 81-38.3 108.8-89.6 130.8-51.3-22-90-49.8-90-130.8v-93.5h179.6z"/><path id="c" fill="#c8102e" d="M811.4 409.8c-1-4.8-7.1-2.9-9 2.9a68.4 68.4 0 0 1-6.8-10.6c-5.7-8.6-6.7-14.4 1.5-22.5 3.8-3.8 11.5-8.2 16.7-3.4 11 9.1 5.3 24-2.4 33.6m176.9 0c1-4.8 7.7-2.9 9.6 2.9 2.4-3.4 4.8-6.7 6.7-10.6 5.7-8.6 6.7-14.4-2-22.5-3.3-3.8-11-8.2-16.7-3.4-10.6 9.1-5.3 24 2.4 33.6m-233.9 39.8c-4.8-7.2-8.6-26-9.6-30.7-1.4-4.3-1.9-8.2 3.4-10 5.3-2 10 4.7 12.4 10.5 2.4 5.7 6.3 14.3 10.6 24.9-10.6-6.2-19.2-2-16.8 5.3m291.4 0c4.3-7.2 8.1-26 9.6-30.7 1-4.3 1.9-8.2-3.4-10-5.3-2-10 4.7-12.4 10.5-2.4 5.7-6.3 14.3-10.6 24.9 10.6-6.2 18.7-2 16.8 5.3"/></defs><path fill="#006" d="M0 0h512v512H0z"/><path fill="#012169" d="M0-.5h256v256H0z"/><path fill="#fff" d="M256-.5v32l-95 96 95 93.5v34.5h-33.5l-95.5-94-93 94H0v-34L93 128 0 36.5v-37h31l96 94 93-94z"/><path fill="#c8102e" d="m92 161.5 5.5 17-76.5 77H0V254zm62-6 27 4 75 73.5v22.5zM256-.5l-96 98-2-22 75-76zM0 0l96.5 94.5-29.5-4L0 24z"/><path fill="#fff" d="M88-.5v256h80V-.5zm-88 88v80h256v-80z"/><path fill="#c8102e" d="M0 103.5v48h256v-48zM104-.5v256h48V-.5z"/><g stroke="#fff" stroke-linejoin="round" stroke-width="9.6" transform="translate(-272 37.8)scale(.72781)"><use xlink:href="#a" width="100%" height="100%"/><use xlink:href="#b" width="100%" height="100%"/><use xlink:href="#c" width="100%" height="100%"/><use xlink:href="#d" width="100%" height="100%"/><use xlink:href="#e" width="100%" height="100%"/><use xlink:href="#f" width="100%" height="100%"/><use xlink:href="#g" width="100%" height="100%"/></g><g stroke="#000" stroke-width="1.4"><g fill="#fcea83"><path stroke-width="1.0189339999999998" d="M277.06 365.023c2.11 5.532 17.103 12.883 34.57 3.494 11.864-6.696 19.506-16.012 26.857-32.752 2.038-4.22 3.13-9.461-1.747-12.59-3.857-2.84-10.19-5.969-12.955-8.734-1.383-1.456-2.765-2.475-3.784-3.494.727.728 1.382 1.383 2.038 2.402 6.986 8.37-.292 20.597-8.006 27.948-5.605 5.24-15.648 18.122-30.35 5.895-3.13-2.766-10.48 8.734-6.55 17.831zm212.084 0c-2.475 5.532-17.468 12.883-34.571 3.494-11.79-6.696-19.506-16.012-27.148-32.752-1.746-4.22-2.838-9.461 2.038-12.59 3.858-2.84 10.19-5.969 12.955-8.734 1.383-1.456 2.402-2.475 3.785-3.494-.728.728-1.383 1.383-2.038 2.402-6.987 8.37.291 20.597 7.642 27.948 5.604 5.24 16.012 18.122 30.714 5.895 3.13-2.766 10.116 8.734 6.55 17.831z"/><path stroke-width="1.0189339999999998" d="M383.102 395.01c27.875 0 70.816-12.592 93.887-56.552 3.785-7.278 0-11.135-4.585-13.537a53.1 53.1 0 0 1-13.974-10.19c5.604 5.605 4.513 9.462.728 15.721-17.831 29.695-42.213 44.688-76.056 44.688s-58.225-14.993-76.056-44.688c-3.785-6.259-4.877-10.116.364-15.648a48 48 0 0 1-13.974 10.117c-4.513 2.402-8.37 6.26-4.513 13.537 22.999 43.96 66.23 56.551 94.179 56.551z"/></g><path fill="#c8102e" stroke-width="1.0189339999999998" d="M318.545 336.057c-.728-3.494-5.167-2.111-6.55 2.11a50 50 0 0 1-4.95-7.715c-4.148-6.259-4.876-10.48 1.092-16.375 2.766-2.766 8.37-5.968 12.155-2.475 8.006 6.623 3.857 17.468-1.747 24.455zm128.75 0c.727-3.494 5.604-2.111 6.987 2.11 1.746-2.474 3.493-4.876 4.876-7.715 4.148-6.259 4.876-10.48-1.456-16.375-2.401-2.766-8.006-5.968-12.154-2.475-7.715 6.623-3.858 17.468 1.747 24.455zM277.06 365.023c-3.494-5.24-6.26-18.923-6.987-22.343-1.019-3.13-1.383-5.968 2.474-7.278 3.858-1.456 7.279 3.42 9.025 7.642 1.747 4.148 4.585 10.407 7.715 18.122-7.715-4.512-13.974-1.456-12.227 3.857zm212.084 0c3.13-5.24 5.895-18.923 6.987-22.343.727-3.13 1.383-5.968-2.475-7.278-3.857-1.456-7.278 3.42-9.025 7.642-1.746 4.148-4.585 10.407-7.715 18.122 7.715-4.512 13.61-1.456 12.228 3.857z"/><g fill="#00493d" stroke="none"><path d="m297.293 333.582-2.766 1.456c-.728.29-.728 1.019-.728 1.382h-.363l-1.383-3.13h.364c0 .292.364.729 1.019.292l5.968-3.13c.727-.364.727-.727.364-1.019l.29-.363 1.747 3.493h-.29c-.365-.364-.729-.728-1.456-.364l-2.402 1.456 1.019 2.038 2.838-1.02c.728-.363.291-1.091.291-1.455h.364l1.456 3.202c-.364-.363-.728-.727-1.456-.363l-5.895 3.13c-.728.363-.728.727-.364 1.018l-.364.364-1.747-3.13.364-.364c.364.364.728.728 1.456.364l2.766-1.455zm5.968 4.585c.728-.364.728-.728.291-1.455h.364l3.494 5.24-2.402 1.747v-.292c1.383-1.091 1.383-2.474 1.019-2.838s-.728-.728-.728-1.019c-.291 0-.291-.364-1.019.364l-2.475 1.747c.364.29.728 1.383 2.475.29h.364l-3.858 2.84v-.365c1.747-1.455 1.02-2.474.728-2.765l-2.474 1.746c-.728.292-.728.728-.728 1.02.364 0 .364.363.728.727.364.728 1.455 1.383 3.13.728l.363.291-2.765 1.019-3.494-5.531h.364c.291.29.728.727 1.383.29zm5.531 13.246-2.401 2.038c-.364.364-.364 1.092 0 1.456h-.364l-2.475-2.475.364-.364c.364.364.728.728 1.456 0l4.512-4.512c.728-.364.728-.728.291-1.456l2.475 2.912c-.364-.437-1.02-.437-1.456 0l-2.038 2.037 1.747 1.747 2.11-1.747c.728-.727.365-1.019 0-1.455l.365-.291 2.401 2.765h-.364c-.29 0-.727-.29-1.382.364l-4.513 4.222c-.728.727-.728 1.018-.364 1.382v.364l-2.401-2.838c.29 0 1.018.364 1.382 0l2.402-2.402zm5.24 7.351 1.092 1.02 1.383-3.13s-1.092.29-2.838 1.382zl-.364.291-.728-.727c-.291.363-.655.363-1.019.727-1.019.728-.728 1.092-.291 1.456v.291l-1.747-1.747h.291l1.456-.364 6.914-3.784.364.29s-.364.365-3.494 7.352c0 .728-.29 1.019 0 1.747l-2.765-2.402.364-.364c.364.728 1.019.728 1.383 0 0-.364.363-1.092.363-1.456l-1.091-1.019.364-.364zm2.766 6.914.364-.363c.364.363.728.363 1.456 0l4.512-5.896-.364-.364c-.727-.364-1.746-.364-2.765.728v-.364l1.382-1.747 5.24 3.858-1.746 2.038h-.364c1.019-1.02.728-2.402 0-2.766v-.364l-4.512 5.968c-.728.364-.364 1.02 0 1.383h-.364z"/><path d="m325.896 367.061-1.747 2.475c-.364.728 0 1.019.364 1.455l-.364.292-2.766-2.111v-.364c.728.364 1.02.364 1.383-.291l3.858-5.24c.29-.728 0-1.092-.364-1.456l.364-.291 2.765 2.038v.364c-.727-.364-1.019-.364-1.455.364l-1.674 2.474 2.11 1.383 1.747-2.475c.291-.727 0-1.019-.364-1.382l.364-.364 2.766 2.11v.364c-.364-.364-1.019-.364-1.456.364l-3.42 5.531c-.728.364-.364.728 0 1.092v.291l-3.13-2.038h.364c.291 0 .728 0 1.019-.363l1.747-2.766zm6.987 9.826.364-.364c.364.364 1.019.364 1.383-.364l2.765-5.895c.364-.728 0-1.092-.364-1.456l5.968 2.838-1.455 2.766-.291-.364c1.019-1.383 0-2.765-.364-3.13-.364 0-.728-.363-1.02-.363-.363 0-.363 0-.727.728-.364.363-1.383 2.401-1.383 2.401.364.364 1.02 1.092 2.475-.727h.29l-2.037 4.22-.364-.29c1.02-2.184-.364-2.475-.728-2.475l-1.383 2.766c-.363.728 0 1.092.364 1.092v.363zm10.116 4.876c-1.018-.728-1.018-2.838 0-4.876.728-2.184 2.111-3.858 3.494-3.203 1.019.364.728 2.475 0 4.586-1.092 2.401-2.475 3.784-3.494 3.493h-.363c2.474 1.019 4.22-.364 5.24-2.838 1.019-2.038.728-4.513-1.456-5.532-2.038-1.092-4.148.291-5.167 2.766s-.728 4.876 1.455 5.604zm10.772.655 1.456-4.148c.29-.728 0-1.092-.364-1.456l1.746.364v.364c-.363 0-.727 0-1.091.728l-1.383 4.148c-.728 1.747-1.747 3.13-3.785 2.475-1.455-.364-2.474-2.111-1.746-3.858l1.746-4.512c.291-.728 0-1.092-.364-1.456v-.291l3.13 1.383v.364c-.364-.364-1.019-.364-1.019.364l-1.82 4.44c-.363 1.382-.363 2.765.728 3.129 1.02.364 2.038-.364 2.693-2.11zm3.202-4.512c0-.364 0-.364-.364-.364l2.402.364 2.184 6.623 1.019-4.222c.29-.727 0-1.019-.364-1.382l2.038.363-.292.364c-.363 0-.727 0-1.091.728l-1.747 7.642h-.291l-2.839-8.37-1.746 5.604c0 1.02.364 1.02.727 1.383v.364l-2.11-.728v-.363c.364.363 1.019 0 1.019-.728l1.747-6.26zm11.864 6.987c-.728 3.13-2.184 3.857-2.839 3.857h-.728s-.29-.364 0-.728l1.092-6.987c.364-.364.364-.728.728-.364h.728c.655 0 1.31 1.456 1.019 4.222l1.019.363c.727-3.493-.728-4.949-2.475-5.24-1.383-.364-3.493-.728-3.493-.728v.364c.364.364 1.091.364.727 1.456l-1.019 6.186q-.545 1.092-1.091 1.092h-.291l3.42.728c1.747.291 3.494 0 4.222-3.858zm3.13-2.839c0-.728-.729-1.019-1.092-1.019v-.364l6.332.728-.364 2.766c0-1.747-1.092-2.402-1.747-2.402-.364-.364-.728-.364-1.092-.364-.291 0-.291 0-.291 1.019l-.364 2.838c.364 0 1.383.292 2.11-1.746l-.363 4.512h-.364c0-2.11-1.019-2.11-1.456-2.11l-.29 3.13c0 .727 0 .727.363.727l.728.364c1.019 0 2.038-.364 2.766-2.475h.364l-.728 2.766-6.623-.728c.727 0 1.019-.291 1.455-.946zm11.499 4.221c0 3.13-1.092 4.149-2.111 4.149-.364-.291-.364-.291-.728-.291l-.29-.364.363-7.278c0-.437 0-.437.291-.437h.728c.728 0 1.747 1.092 1.747 4.221h1.383c0-3.493-1.747-4.512-3.494-4.512-1.456-.364-3.493-.364-3.493-.364v.364c.363 0 1.091.291 1.091 1.019l-.364 6.623c0 .728-.364 1.019-.727 1.019v.364h3.13c1.746 0 3.493-.728 3.857-4.513h-1.456zm10.116 2.766c0 .728.364.728 1.02.728v.364l-3.858.29c.364-.29 1.092-.727 1.092-1.382l-.728-6.55c-.364-.728-.728-.728-1.383-.728v-.364l3.857-.364c-.364.364-1.091.728-.728 1.456zm3.494.728v-.364c.364 0 .728-.364.728-1.019l-1.456-7.278h-.364c-.728.291-1.383.946-1.019 2.402h-.364l-.364-2.475 6.332-1.019.291 2.402h-.29c0-1.383-1.092-1.747-2.184-1.747h-.291l1.455 7.278c0 .728.291 1.092 1.02 1.092v.364zm14.993-6.987-1.456-4.149c0-.727-.655-.727-1.019-.727v-.364l1.747-.728v.364c-.364.364-.364.364-.364 1.092l1.456 4.512c.29 1.456.29 3.493-1.747 4.221-1.456.291-3.13-.364-3.494-2.474l-1.455-4.513c-.291-.728-.655-.728-1.02-.728l-.363-.363 3.493-1.02v.365c-.29.363-.727.727-.29 1.382l1.018 4.513c.364 1.455 1.456 2.11 2.402 2.11 1.092-.363 1.456-1.746 1.092-3.493m3.857-2.475c1.674-.727 1.383-1.674 1.019-2.765-.364-1.02-1.019-1.747-1.747-1.383-.364 0-.728.364-.364.728zl.291.364.728 2.839c.364.728 1.019.728 1.456.29v.365l-3.203 1.455-.364-.364c.728-.363.728-.727.728-1.455l-2.474-5.895c-.364-1.02-.728-.728-1.383-.728v-.291l3.493-1.456c1.456-.291 2.766 0 3.494 1.456.364 1.746-.364 2.765-1.747 3.493-.364 0-.728.291-.728.291z"/><path d="M424.587 381.326c-1.019.437-2.402-1.019-3.494-3.42-1.018-2.111-1.018-4.222 0-4.513 1.092-.364 2.475 1.02 3.494 3.13 1.092 2.11 1.092 4.148 0 4.876 2.183-.728 2.838-3.13 1.747-5.604-1.02-2.11-3.13-3.494-5.24-2.766a4.076 4.076 0 0 0-1.747 5.604c1.091 2.402 3.202 3.785 5.24 2.766zm.364-9.68h-.655l2.038-1.455 6.332 3.493-2.184-3.784c-.29-.728-1.019-.728-1.31-.728v-.364l1.747-.728c-.364.437-.728.728 0 1.456l3.493 6.987-.364.364-7.714-4.222 2.838 5.24c.291.728 1.02.728 1.383.365v.363l-1.747 1.02v-.365c.364-.363.364-.727 0-1.382l-2.765-5.605-1.092-.727zm15.72 1.02v-.365c0-.363.364-.727 0-1.382l-4.22-5.896h-.365c-.727.292-1.019 1.747 0 2.766l-.29.364-1.456-2.475 5.24-3.493 1.455 2.183c-1.091-1.091-2.183-1.091-2.838-.727l-.364.29 4.221 5.969c.364.728 1.02.728 1.456.364v.29z"/><path d="m444.529 364.296 2.038 2.474c.364.291 1.092.291 1.455 0v.291l-2.838 2.475v-.364c.364-.364.364-.728 0-1.383l-4.149-5.24c-.363-.728-.727-.364-1.455-.364l2.838-2.402v.364c0 .291-.364.728 0 1.383l1.747 2.038 2.038-1.383-1.674-2.402c-.364-.728-1.092-.364-1.456-.364l2.839-2.474v.364c-.364.363-.364.727 0 1.455l4.148 5.168q.546.546 1.092 0l.291.364-2.766 2.474-.363-.364c.363-.364.727-.728.363-1.455l-2.11-2.402zm3.13-7.351c-.364-.291-1.092-.291-1.456 0v-.291l4.585-4.222 2.11 2.11h-.363c-1.092-1.455-2.475-.727-3.13-.363 0 .364-.364.364-.728.728 0 0 0 .29.364 1.019l2.111 2.11c.291-.364 1.383-1.091 0-2.838h.291l2.839 3.202v.291c-1.747-1.746-2.475-.727-2.839-.29l2.184 2.037c.29.728.655.728.655.728l1.019-1.019c.363-.364.727-1.456 0-3.493h.363l1.383 2.401-4.512 4.513-.364-.291c.364-.364.728-.728 0-1.456zm8.37-9.753c-.365.364-.365 1.092.29 1.456.728.655 1.456.655 2.839 0 .728-.364 2.038-.728 3.13.29 1.746 1.748 1.018 3.13.727 3.858-.364.364-1.091.728-1.455 1.02-.364 0-.364 0-.364.363v.364l-2.402-2.11h.364c1.383.727 2.766 1.018 3.493 0 .728-.729 0-1.456-.363-1.747-.728-.728-1.456-.728-2.475 0-1.019.363-2.402.363-3.494-.364-1.382-1.383-1.382-2.402-.727-3.494l1.455-1.019c.364 0 .364 0 0-.728l2.475 1.747h-.364c-1.747-.728-2.839-.291-3.13.364m3.129-2.766c-.728-.364-1.092 0-1.456.364h-.29l3.857-5.604 2.401 1.747-.364.364a2.4 2.4 0 0 0-3.13 0c0 .364-.363.728-.363 1.019-.291 0-.291.364.364.728.364.363 2.474 1.746 2.474 1.746.364-.364 1.02-1.091-.363-2.474v-.364l3.493 2.838c-2.11-1.091-2.475 0-2.766.291l2.402 1.747c.728.364 1.019.364 1.019.364 0-.364.364-.728.728-1.019.364-.728.728-1.747-.728-3.13l.364-.363 1.747 2.11-3.494 5.24h-.364c.364-.727.364-1.091-.29-1.746zm9.389-6.259-1.02 1.747c-1.455-1.456-2.11-2.475-2.11-2.475zh.727c.364 0 1.02.291 1.383.291 1.02.364.728.728.364 1.456h.364l1.747-3.202c-.728.727-1.092.363-1.747.363-7.35-1.382-8.006-1.746-8.006-1.746v.364l5.532 6.259c.363.364.363 1.092.363 1.455h.364l1.02-1.746-.365-.364c-.363.728-.727 1.019-1.382 0l-.728-.728 1.091-2.402zm-2.111-7.715c-.291.364-.291 1.092.728 1.456 1.019.291 1.455 0 2.474-.728s2.038-1.455 3.421-.728c2.184 1.092 1.747 2.839 1.456 3.494l-1.092 1.456v.655l-2.766-1.456c1.747.364 3.13 0 3.494-1.019.364-.728-.364-1.383-.728-1.747-.728-.29-1.383 0-2.402.728-1.091 1.019-2.183 1.456-3.493.728-1.456-.728-2.11-1.747-1.456-2.839 0-.727.728-1.019 1.092-1.382 0-.364 0-.364-.364-.728v-.291l2.838 1.382h-.364c-1.746-.363-2.838.364-2.838 1.02"/></g></g><g stroke="#000" stroke-width="1.4"><g fill="#073163"><path fill="#fff" stroke-width="1.0189339999999998" d="M356.246 207.016c-4.513 1.019-7.642 1.383-11.864-2.475-2.765-2.765-2.11-7.642.728-9.461 3.13-2.038 5.895-3.421 9.753-2.402 3.857 1.092 13.974 10.48 11.5 10.844-2.475 0-6.26 2.402-10.117 3.494zm10.771-16.74c1.456-1.092 3.203-1.747 7.715-2.183 4.221-.291 7.278-.291 8.37 2.911 1.455 3.785 2.474 8.297 5.24 10.408-1.747 1.019-10.48 2.11-13.61.364-4.149-2.111-5.24-10.19-7.642-11.5zm30.059.364c1.383-1.092 3.13-1.092 7.642-.728s6.259.728 7.278 3.858c1.092 3.493 0 8.006 2.183 11.135-2.183.728-9.097.728-11.572-1.747-3.785-2.765-3.493-10.844-5.531-12.59z"/><path stroke-width="1.0189339999999998" d="M417.964 192.678c-3.13-.728-5.24-1.019-6.55 0 1.674 2.11.29 10.48 3.784 13.246 2.402 1.747 8.734 2.184 10.117-1.747 1.747-3.493 1.747-8.733-7.278-11.499zm-35.881-3.494c1.019-1.018 3.13-1.382 7.278-1.382 4.585 0 7.278.727 8.734 3.493 1.455 3.494 1.019 8.006 3.493 10.844-1.019 1.383-10.48 1.383-13.246-.727-3.857-2.475-4.221-10.48-6.26-12.228zm-29.622 3.13c0-1.747 2.402-2.038 8.734-2.402 6.186-.728 6.55-.364 8.66 4.149 1.02 2.474 2.402 6.623 5.24 8.006-7.714 1.82-10.188 2.838-14.337.364a21.25 21.25 0 0 1-7.278-7.642c-.364-1.02-.364-2.111-1.092-2.475z"/></g><g fill="#f9d050" stroke-width=".6"><path stroke-width=".43668599999999996" d="M369.2 156.797c-7.35-5.604-16.084-10.844-24.09-11.863a204 204 0 0 1 23.727 18.486"/><path stroke-width=".43668599999999996" d="M373.35 151.557c-8.735-5.968-18.851-12.591-28.604-13.246a90.3 90.3 0 0 1 24.018 20.233m15.72-16.74a67.7 67.7 0 0 1 17.104-23.435c-3.493 7.35-7.278 22.343-9.097 28.311"/><path stroke-width=".43668599999999996" d="M392.2 140.057a35.23 35.23 0 0 1 17.758-18.559 73.7 73.7 0 0 0-13.246 25.473"/><path stroke-width=".43668599999999996" d="M395.329 146.972a61.5 61.5 0 0 1 27.511-23c-8.734 8.734-21.616 24.746-24.745 31.078m2.11-.364c6.26-3.493 18.85-9.097 27.875-7.278-5.53 2.038-22.27 9.68-29.621 16.74"/><path stroke-width=".43668599999999996" d="M398.822 152.212c5.896-6.26 16.74-15.648 28.24-19.506-8.37 8.006-26.202 26.202-28.603 28.967m-16.376-13.246c-4.221-12.955-10.48-25.11-19.87-28.967a95.3 95.3 0 0 1 15.285 35.59m-3.494-6.987c-6.914-8.37-16.376-16.74-27.147-18.486a65.58 65.58 0 0 1 24.018 28.239"/><path stroke-width=".43668599999999996" d="M377.934 147.7c-8.733-15.721-15.43-18.487-19.214-21.617 3.13 5.896 10.772 21.616 15.284 28.24"/><path fill="none" stroke-width=".43668599999999996" d="M360.467 146.68a42 42 0 0 1 12.518 12.155"/><path stroke-width=".43668599999999996" d="M360.467 153.958c2.038 1.747 5.895 3.858 9.389 6.987m32.096-1.746c3.494-2.766 11.136-7.278 14.993-8.734m-17.467 6.332c3.493-4.585 10.48-10.844 12.955-12.955m-3.203-8.734a209 209 0 0 0-13.246 16.449m4.221-19.578a114 114 0 0 0-8.733 15.356m-18.85-14.629c2.11 5.605 5.967 14.993 7.277 18.85m-10.407-12.954c1.455 2.183 4.221 6.987 5.24 10.48M381.355 136.855c0-3.13 2.11-6.55 4.221-6.55 2.402 0 4.149 4.148 4.149 6.55 0 2.838-2.11 5.24-4.149 5.24-2.183 0-4.221-2.038-4.221-5.24z"/><path stroke-width=".43668599999999996" d="M376.843 139.693c.364-3.493 2.765-6.259 4.876-5.968 2.11.364 3.13 4.586 2.766 6.987-.364 2.766-2.766 4.877-4.513 4.513-1.747 0-3.493-2.402-3.13-5.532zm9.388 1.02c-.727-3.13.728-6.551 2.839-6.988 2.038-.29 4.148 3.13 4.512 5.968.728 2.766-1.091 5.532-2.838 5.532-1.674.364-4.149-1.383-4.513-4.513z"/><path stroke-width=".43668599999999996" d="M380.991 143.478c0-3.42 2.11-6.55 4.221-6.55 2.402 0 4.149 3.784 4.149 6.55 0 2.838-2.038 5.24-4.149 5.24-2.11 0-4.22-2.038-4.22-5.24z"/><path stroke-width=".43668599999999996" d="M374.732 145.225c0-3.13 2.475-6.55 4.512-6.55 2.184 0 4.222 4.148 4.222 6.55 0 2.838-2.475 5.24-4.222 5.24-2.037 0-4.512-2.038-4.512-5.24zm12.882-1.383c0-3.13 2.184-6.55 4.222-6.55 2.401 0 4.148 4.148 4.148 6.55 0 2.838-2.038 5.24-4.148 5.24-2.111 0-4.222-2.11-4.222-5.24z"/><path stroke-width=".43668599999999996" d="M386.231 146.68c0-3.493 2.475-6.623 4.513-6.623 2.183 0 4.221 3.785 4.221 6.55 0 2.84-2.11 5.314-4.221 5.314-2.038 0-4.513-2.184-4.513-5.24z"/><path stroke-width=".43668599999999996" d="M380.7 149.81c0-3.494 2.038-6.623 4.149-6.623 2.474 0 4.22 4.148 4.22 6.55 0 2.911-2.183 5.313-4.22 5.313-2.111 0-4.222-2.183-4.222-5.24zm-8.734 0c0-3.494 1.747-6.623 3.494-6.623s3.13 4.148 3.13 6.55c0 2.911-1.747 5.313-3.13 5.313-1.747 0-3.494-2.183-3.494-5.24zm19.506-.655c0-3.202 1.746-6.332 3.493-6.332s3.494 3.857 3.494 6.26c0 3.129-2.111 5.24-3.494 5.24-1.747 0-3.493-2.111-3.493-5.24z"/><path stroke-width=".43668599999999996" d="M393.582 154.977c.728-3.42 2.766-6.259 4.149-5.822 1.455.291 1.747 4.44 1.091 6.914-.363 3.13-2.474 4.876-3.857 4.513-1.456-.292-2.11-2.766-1.456-5.532z"/><path stroke-width=".43668599999999996" d="M386.96 153.958c.363-3.13 2.4-6.259 4.148-5.895 2.11 0 3.13 4.149 2.838 6.55-.364 3.203-2.183 5.314-3.857 4.95-1.747 0-3.494-2.475-3.13-5.605zm-9.753 1.02c-1.092-3.421-3.203-5.823-4.586-5.532-1.383.364-1.746 4.512-1.019 6.987.728 2.766 2.766 4.512 4.149 4.149 1.092-.292 2.183-2.766 1.456-5.532z"/><path stroke-width=".43668599999999996" d="M374.732 154.322c0-3.13 1.747-6.259 3.493-6.259 2.111 0 3.494 3.858 3.494 6.26 0 3.129-1.747 5.24-3.494 5.24-1.455 0-3.493-2.111-3.493-5.24z"/><path stroke-width=".43668599999999996" d="M379.972 155.705c0-3.493 2.11-6.55 4.149-6.55 2.474 0 4.221 3.785 4.221 6.55 0 2.839-2.11 5.24-4.221 5.24-2.038 0-4.149-2.11-4.149-5.24zm1.747-38.355c-.728 2.765-3.13 5.24-1.456 9.097-3.056-1.091-5.822-1.455-8.297 1.383 3.13-.364 5.896.728 7.278 2.766-2.765-.364-4.148 1.091-4.876 2.838 2.475-.728 4.876-1.455 5.968-1.091-1.092 1.091-2.838 2.765-3.13 4.22 2.038-1.746 4.513-1.455 5.896-2.474-1.02 2.475 1.019 4.877 2.765 7.278-.29-3.42 1.747-5.822.728-7.642 3.13.728 3.494 3.494 8.006 3.494-1.747-1.02-2.765-4.513-4.876-4.513 1.019-.363 5.24-.727 5.968 0-.728-1.455-3.202-2.765-4.585-2.765 1.455-1.456 3.857-4.222 5.604-4.95-2.475.365-6.26.728-7.642 2.84 3.42-2.84 2.766-8.007 6.55-8.735-2.038-.364-5.167 1.02-7.642 3.494 1.092-2.11 1.092-4.876 2.475-5.604-2.839.728-5.968 4.221-6.987 5.968a13.1 13.1 0 0 0-1.747-5.604z"/><path stroke-width=".43668599999999996" d="M383.466 122.954c0 1.019 0 3.13-.364 3.784m4.876-4.148c-.728.728-2.11 3.13-2.11 5.24"/><path fill="none" stroke-width=".43668599999999996" d="M390.089 126.738a5.53 5.53 0 0 0-2.475 3.203"/></g><g fill="#059334"><path stroke-width="1.0189339999999998" d="M353.116 161.31c-2.475 0-4.512-1.02-5.968-2.766-2.402-3.203-9.025-4.586-11.863-1.747-1.02.728-2.402.728-3.421 1.019-1.747 0-3.857 1.747-3.202 5.24 1.455-1.092 1.746 0 2.838 0 .728-.364.364.364.364 1.019 0 1.747 3.785 5.24 7.278 4.876 3.857 0 5.604 1.456 6.26 2.184 1.09.946.363.655 1.09 2.402 1.02 1.018 1.384 1.382-.363 2.765a7.06 7.06 0 0 0 0 10.845c4.512 3.42 16.012 8.733 28.967-1.456 12.518-9.753 32.024-4.149 33.48-.728 1.746 3.566 2.4 5.604 2.765 7.351.364 1.456 2.11 2.839 4.585 2.475 2.402 0 5.167 1.019 6.55 2.11 1.82 1.02 4.222.728 3.567-2.474-1.456-9.753-7.351-11.136-8.006-15.648 3.42.29 5.822.29 7.278-1.092 1.019-1.383 2.402-3.857 3.857-4.512 1.02-.728 1.02-1.456-.364-1.092-1.746.364-2.765 1.092-5.968.728-16.012-1.747-60.99-13.974-69.724-11.5z"/><path fill="#000" stroke-width="1.0189339999999998" d="M424.296 173.173a25.3 25.3 0 0 0-6.696 6.987c-3.42 4.512-13.901 9.024-26.856 9.024-12.519 0-20.16-2.037-25.765-6.55a44 44 0 0 0-7.714-4.949c-3.785-1.747-4.513-5.604-3.494-8.734-1.019 1.747-1.674 3.494-3.785 3.13-1.455 0-4.22 0-3.493 1.456-.364-.728-.364-1.747-.728-2.184l-.728-.655c1.092.728 3.567-1.383 5.313-1.383 1.383.364 3.13-1.383 2.766-3.493l-1.019-4.513c2.766-1.455 39.375 5.24 46.725 5.896 7.279.364 28.24 3.493 25.474 5.968z"/><path stroke-width="1.0189339999999998" d="M357.992 159.927c3.494-3.494 7.642-5.24 11.864-4.222h1.019c2.183-1.747 6.987-2.11 9.825-.728h1.383c4.148-1.382 12.154 0 14.993 2.839l1.019.728c9.461-.728 14.993 3.42 21.616 10.116.727.728 1.746 2.038 3.493 2.402 2.11.364 2.475 1.456.728 2.475a27.5 27.5 0 0 0-7.278 6.55c-3.203 4.221-13.32 8.442-25.91 8.442-12.155 0-19.506-2.183-25.11-6.331-3.13-2.402-5.531-3.785-7.278-4.877-2.11-.728-4.876-3.493-3.857-6.259.728-2.766-1.02-6.26-2.402-9.753 1.019-.727 3.785-1.746 5.168-1.019z"/><g fill="#00493d"><path stroke-width="1.0189339999999998" d="M419.71 168.66c-6.55-6.696-12.154-10.844-21.615-10.19 0 .365 0 1.457-.364 2.184a48.25 48.25 0 0 1 17.103 12.883c1.456-1.456 3.858-3.13 4.877-4.877zm-22.634-10.844c-2.839-2.766-10.845-4.221-14.993-2.766 0 1.383 0 3.494-.728 4.877 2.475 1.018 4.512 3.493 6.623 5.895 1.456-.364 4.876-1.383 6.623-1.747a32 32 0 0 0 2.475-6.26zm-16.376-2.839c-2.838-1.382-7.715-1.019-9.825.728-.728 1.456-1.02 4.222-1.02 5.604 1.456 0 3.494 1.02 4.15 1.747 2.183-.728 4.948-2.11 5.967-3.13.364-1.455 1.02-3.493.728-4.876zm-22.708 4.95c3.494-3.494 7.642-5.24 11.864-4.222-.728 1.092-1.02 3.13-1.02 5.24-3.857-.363-8.733.728-10.844 2.111z"/><path stroke-width="1.0189339999999998" d="M413.451 174.192a46.7 46.7 0 0 0-16.011-12.228c0 .364-.728 1.747-1.092 2.839 2.11 3.13 6.26 10.116 8.006 13.974 1.747-.728 6.623-2.839 9.097-4.585zm-26.492 7.714a130 130 0 0 0 1.02-14.337c1.746-.364 5.24-1.383 6.622-1.747 1.747 2.838 5.968 10.19 7.715 13.61-4.221 1.019-11.208 2.766-15.357 2.474zm-12.227-16.74c1.747-.727 4.221-2.183 5.895-3.493 1.456 1.02 4.222 3.494 5.24 4.877 0 3.13-1.018 12.227-1.382 15.284-2.766 0-7.278-.655-9.753-2.038.364-5.24.728-11.136 0-14.63zm-17.467 4.15c.363-.729.727-3.13.727-4.15 2.766-1.746 9.753-3.493 14.993-.727.364 3.493 0 12.227-.364 14.338a70.2 70.2 0 0 0-15.284-9.462z"/></g><g fill="none"><path fill="#000" stroke="none" d="M339.87 162.983c-.728 0-1.092-2.038-2.475-2.038-.364 0-1.383.364-1.746 0 0 .728.363 1.456.727 1.747.364 1.02 2.111.364 3.494.364z"/><path stroke-width="1.0189339999999998" d="M339.87 168.951c4.148 0 4.876-5.24 6.987-5.531m-4.585 5.895c3.13 1.456 5.604-5.895 8.006-5.604m-14.266-3.42c1.02 0 1.747-1.456 3.494.29.728.728 1.747 1.092 2.475 1.092m-.728 3.785c-1.456 2.183-3.858 3.493-5.24 2.838m-.728-11.5c-1.02.729-1.674 2.039-2.402 3.13m-1.019 2.038v1.747"/></g></g></g><g stroke-width="1.4" transform="translate(-272 37.8)scale(.72781)"><path fill="#fff" d="M989.7 233v93.4c0 81-38.3 108.8-89.6 130.8-51.3-22-90-49.8-90-130.8v-93.5h179.6z"/><path fill="#c8102e" d="M900.1 312c4.3 0 11-3.8 16.8-9.6 6.2-6.7 16.8-9 27.8 0 11 9.1 17.7 5.3 23.5 0 5.7-5.2 10.5-7.2 21.5-7.2V233H810v62.3c11 0 15.8 2 21.6 7.2 5.7 5.3 12.4 9.1 23.5 0 11.5-9 21.5-6.7 28.2 0 5.3 5.8 12 9.6 16.8 9.6z"/><path fill="#0b50a0" d="M900.1 360c5.8 0 17.3-6.3 20.1-7.7 10.6-6.3 18.2-.5 24.5 2.4 6.7 2.8 19.1 6.2 26.8 0 7.7-6.3 12-5.8 17.3-5.8 1-7.2 1-14.4 1-22.5v-5.8c-6.8-1.4-10.1.5-17.3 6.8-7.2 6.2-15.4 4.8-26 1-10-4.4-20-12-30.1 0a24.2 24.2 0 0 1-16.3 8c-7.2 0-13.4-4.7-16.3-8-10.5-12-20.1-4.4-30.2 0-10.5 3.8-19.2 5.2-26.3-1-6.7-6.3-10.1-8.2-17.3-6.8v5.8c0 8.1.5 15.3 1.4 22.5 5.3 0 9.2-.5 16.8 5.8 7.7 6.2 20.6 2.8 26.9 0 6.7-2.9 14.3-8.7 24.9-2.4 2.9 1.4 13.9 7.6 20.1 7.6zm0 20.6a51 51 0 0 0 23.5-7.2c9.6-5.3 16.3-3 25.9 1.9 10 4.8 18.2 3.3 24 0 2.8-2 5.2-5.8 11.4-4.3-2.8 12-7.2 22.5-12.4 31.1a32.5 32.5 0 0 1-25-1.9c-10-4.8-22.5-7.7-29.2-3.4a36 36 0 0 1-18.2 5.8c-5.3 0-12-2-18.2-5.8-6.7-4.3-19.2-1.4-29.2 3.4a32.5 32.5 0 0 1-25 2c-5.2-8.7-9.5-19.3-12.4-31.2 6.2-1.5 8.6 2.4 11.5 4.3a23.9 23.9 0 0 0 23.5 0c10-4.8 16.7-7.2 26.3-2a51 51 0 0 0 23.5 7.3m0 76.6a191.9 191.9 0 0 0 51.3-29.7c-3.9-1.4-6.2-.5-9.6-2.9s-13.4-3.3-22 1.5a39 39 0 0 1-39.3 0c-8.7-4.8-18.7-3.9-22-1.5-3.4 2.4-5.8 1.5-9.7 3a184.7 184.7 0 0 0 51.3 29.6"/><g stroke="#000"><path fill="#f9d050" d="M887.6 256.4c.5 1-.4 3.4 0 4.3 1 2 1 3 2.4 3.9h3.4c10.5 0 23-4.3 33.5-4.3 10.1 0 16.3 3.3 22 3.3 3.4 0 6.3-2.4 6.3-4.8s-3.8-3.8-12-3.8c-11.5 0-17.7 2.9-27.3 2.9-14.4 0-16.8-5.3-16.8-7.7s2.4-5.7 10.1-5.7c2.4 0 4.3-.5 5.3-1.5.5-1 1.9-2.9 4.8-4.3 3.3-2 10 0 13.4-2.4 0 2-2.9 4.8-5.3 5.8 4.8-1.5 10-1.5 11 2.4-2.4-1.5-6.2-.5-7.6 0-2 .4-2.9 1-4.8 1.4 1.9-.5 2.9 3.3 5.7 3.3-2.8 2.4-7.6 2.4-12.4.5-1.5-.5-5.3-1.9-7.7-1.9-4.8 0-7.7 1-7.7 2.9 0 2.4 3 3.8 11.5 3.8 8.7 0 13.5-2.4 26.4-2.4-1-1.4.5-2.9-1.4-4.3 4.8 0 10 1.4 12 4.8-.5-3.4 2.3-6.2 1.4-9.1 2.9.5 5.3 3.3 5.7 5.7 0-1.4 2-1.4 2-2.8a7.4 7.4 0 0 1 3.8 7.6c1.4-2.4 2.9-1.4 3.8-4.3 1 2 .5 7.7-2.9 9.6 3-2 7.2-2 10.1 1.4-2.9-.4-4.3 1-5.7 1.5A44.4 44.4 0 0 1 948 267c-7.6-.5-8.6-2-13.4-2 2.9.5 8.6 6.3 14 6.3 3.3 0 5.7 0 7.1-.5s3.8 0 5.7 1c1.5 1.4 4.4 2.8 6.3 2.4-.5 1.9-1.5 2.8-2.9 3.3 2.4 1.5 1 2.4 3.4 4.3-1 0-2 1-3.4.5 1.4 1.4 1.4 3.4 2.9 4.3-.5 0-2 .5-2.9 0 1.4 2 0 4.3 1.4 5.3 1.5 2-1.4 4.3-3.8 2.4.5 1.4-1 2.9-2.4 2.4s-2.4-2-2-2.4c0-.5 0-.5.6-1-1 1.5-2.9 1.5-3.9 1-.4-.5-1-1-1-1.4-3.3 1-4.7-2-4.2-3.4.4-1.4 3.3-2 4.3-1.4 1 .4 1.9 1 2.9 0 1-.5 1.4-1.5 1.4-2.4 0-1.5-1.4-5.8-7.7-5.3-7.2.5-18.7-1.4-24.4-3.4-.5-.4-1-.4-1.5-1 0 2-1.9 3-1.9 4.9 0 2.4 1 4.3 3.9 5.2-1.5 2.4-3.9 2-4.8.5 0 1.5-2 2.4-2 4.3-.4-1-1-1.4-1.4-2.4-1.4 3.4-5.3 5.3-7.2 4.4-2.4 1.9-5.2 1.4-6.2-.5-1.4 1-3.4 1-4.3 0 0 1.4-1 1-1.5 2.9 0 1-1.9 1.4-2.8 1-1-.6-1.5-2.5-.5-3.4-1.4 1-2.9 1-3.8 0 0-1 0-2.4 1-3h.9c-1-.4-2.4 0-3.4-.4-1-1-1-2-.5-2.9.5-.5 2-1.4 3-.5l.4.5c0-1 .5-1.9 1-1.9 1-.5 2.3-.5 3.8 1 1 1.4 1.9 1.4 4.8 1 2.4 0 6.2-2.5 9-4.9-8-1.4-3.3-6.7-.9-8.6-1.9-.5-4.8-.5-6.7.5-10 5.3-20.6 11.5-27.3 9.6a6 6 0 0 0 1 2.8c-1.5 0-4.4 0-5.3-1.4-.5 1-1.4 3.4-.5 5.3-1-1-3.8-2-5.3-2.4 1 1 0 2.9.5 4.3-1.4-1.4-3.8-2.4-4.8-1.4s-2.9 1.4-4.3 1a7.5 7.5 0 0 1-3.8 2.8c0-1 0-2.4-.5-2.9-.5 1.5-2 3.4-3.8 4.3 0-1 0-2.4-.5-3.3 0 1.9-3.8 2.9-4.3 4.3.5-1.4.5-2.9.5-3.8a7.3 7.3 0 0 1-4.8 3.3c.4-1 1-2 .4-2.9-.4 2-3.3 3-5.7 2.4 0 1-2 2.4-4.3 1-1.5-.5-2.4-2-1.5-2.9-1.9 0-3.8-1.9-2.8-3.3 0-.5.4-1 .4-1.5-1.4-1-1.9-2.9-.4-4.3.4-.5 1.9-.5 2.8-.5 0-3.8 3.4-3.8 4.8-1 1 1.5 3.9 3.9 6.3 3.4 1 0 1.4-.5 2.4-.5a43 43 0 0 0 12-6.2c.4-1.4.4-2.4.4-3.3-1.9 1-3.8 1.9-4.8 3.3v-1.4c-1.4 0-3.8-.5-4.8-.5.5-.5 1-2.9 2-3.4-2.4.5-4.8 0-6.8-.4 1-1 1-2.4 1.5-3.9-1 .5-3.4-.4-5.3 0 .5-1.4 1-3.3 2.4-3.8-2 .5-4.3 0-6.7-1 2 0 2.9-2.4 4.3-2.4-3.8 0-4.8-1.9-6.7-2.8 1.4.4 2.4-1 3.8-1-1.4-.5-3.8-2.9-2.8-4.3-.5.5-1 1.4-2 2-1 .4-2.8 0-4.3-1.5-1-2-.5-4.3 1.5-4.8a2.3 2.3 0 0 1-1.5-3.9c.5-1 2.4-2.3 3.4-1l1.4 2c-.5-1-.5-2.9-.5-4.3.5-1.4 1.5-1.4 3-2 1.3 0 2.3 1.5 2.3 3 0 1.4.5 2.3 1 4.3l.4-2c0-1.9 2.4-1.4 3.9-1 1.4.6 1.9 3.4 0 4.9-1 1-.5 2.4.5 3.3 3.3 5.3 9 9.6 13.9 10.1 0-2 1-3.8 2.4-5.3 0-1 .4-2.4 1-3.3.4-2.9 1.8-4.3 3.7-3.4-.4-.5-1-1-1-1.4-1.4-1.5-2.8-3.9-1.8-5.8s3.8-1.4 4.8-.4c-.5-3 2.8-5.3 2.8-6.8.5 1.5 1.5 3.4 1 4.8.5-1.9 3.8-4.3 6.2-5.2-1 1.4 2 3.8 1.5 5.2 1-2.4 4.8-3.8 7.6-3.8-1 1-1 2.9-1 3.8 1.5 0 4-.4 4.9-1.9 0 2-1 3.9-2 4.8.5-.5 2.4-.5 3.9-.5-1.5 1.5-1 3-2.4 3.9 1.9-1 4.3-1 4.8 1 1 1.4-.5 3.8-1.5 5.2-1 .5-1.9 1.4-2.4 1.4z"/><g fill="none"><path d="M858 262.2c-3.4 1.4-4.4 4.8-4.9 6.7"/><path d="M857.5 265.5c-4.8 3-6.8 5.3-5.8 10.6m8.1 3.9c3-1 4.8-2 7.2-6.3"/><path d="M865.6 275.6c-1 2 0 5.3-1.4 6.7a8.8 8.8 0 0 0 4.8-6.7"/><path d="M866.6 280.9c1.9-1 4.8-3.9 6.2-7.2-.5 1.4 0 3.8-1 5.3 2.4-2.4 3.4-3.9 3.9-6.3l.4 2c1-1 2-2 2-3.9m-.1 1.4v2.4c2-1.4 2.5-3.3 2.5-5.7"/><path d="M880 271.8c2.9-2 3.3-4.8 3.3-9.1m0 4.8c2-1.5 2.4-2.4 2.4-6.8m-6.2-12.9c-1 0-2 .5-2 2 0 .9-1.4 2.3-1.4 3.8-.4 1.9-1.4 2.4-2.8 1.9-1.5-1-1.5-1-1.5-2.4 0-2 2.4-2.4 2.4-4.3.5-1 1-2.4 1.5-2.4-2.4 1.4-5.8.4-6.3-2.4"/><path d="M883.8 249.2c-1 .5-2-1-3.3-.4-.5 0-2 .4-2.4 0"/><path d="M877.1 251.6c.5.5 2.9 1.5 5.3.5-2 .5-3.4-1.9-1.5-3.3m-8.1-2c-2 0-3.4 1.5-2.9 3 .5 1.4 2.4 1.4 3.8.4m-4.3 20.6c.5-.5 1-1.4 1-2 1 0 2-.4 2.4-.9 1.9 0 3.3-1.4 3.8-2.8 1 0 1.5-2.4 2-3.4.4.5 1.4 0 1.9-2 1 .6 2.4 0 2.8-1.4m-19.6-3.3c0 .5-1 1.4-2 2 .5.9 0 3.3-.9 3.7.5 1 0 2.4-.5 3.4 0 .5.5 2 .5 2.4m4.8-21.1c-1 2.4-.5 5.3 1.4 5.8"/><path d="M866.6 253c-.5 2.5-.5 5.8-1 7.3-.5 1-1.4 4.3 2.4 5.2 4.3 1 6.7.5 9.1-6.7m7.2 18.7c0 .5-.5 1.5-1.4 1.5m4.7-2.4c0 1-1 2.4-1.4 2.8m4.8-3.8c0 1 0 2.4-1 2.9m-28.2-32.6c.4 0 1 1 1.4 1.9-1.4-1-2.9 1.4-2 2.9m-.9 3.3-1.9 1.5m.5 2.8c-.5 0-1 .5-1.4.5m-21.6-9.1c0-.5 0-.5.5-1m-4.8-.4c-.5 0-.5 0-1-.5m1.4 7.2h1m-2.9-2.9a5 5 0 0 0-2.8-1.4m29.2 19.2c-3.4 2.8-4.8 5.2-5.3 8.6m8.6-6.3a11 11 0 0 1-3.8 4.4m-14.8 10a11 11 0 0 1-9.6-1.4c-.5-.5-1-.5-1.5-1m25.4-4.2c-.4 1.8-1 4.2-1.9 4.7 3.9-2 7.2-4.8 7.7-9.1M827.7 289c1.5-.5 3 .5 3.9-.5m79.5-15.3c1 .5 2.4 1 2.9 1.4.5-1 2.4-2.4 3.8-2.8m-40.7 11.5c-.5-2 .5-4.3 3.4-5.3m-22.1 13.4c.5-1 .5-2.4 1-3.3m-22.1 4.8c-.5 1-1.4 1.9-1.4 2.8m-5.8-1.9s0-.5.5-.5c1-.4 2.4-1.4 2.9-2.4m61.8-3.8c-1 .5-1.4 0-1.9-.5m1.4 2.9s-.4.5-1 .5m3.4 1.9c-.5.5-1 1-1.4 1m15.3 0c1-.5 1.5-1.5 2-3.4m-8.2 2.9c1.4-.5 2.4-1.5 3.8-2.9m9.6-1c0-1 0-1.9.5-2.8m35 7.2c-1-1-1-2.4.5-3.4 1-.5 1.4-1 2.4-1.4"/><path d="M924.5 276c-7.6-3.3-7.1-7.6-13.4-7.1m47.5 22.1c.5.4 0 1.9 0 2.3m4.3-2.3c-.5 1.4-.5 1.9-.5 3.3M926 245.9h-4m-36.3 16.3c0 1 1.5 2.9 5.3 2.9-.5 0-1-.5-1-.5m-2.4-8.2c-.4.5-1 0-1 0-.9-1 .6-2.8 2-3.8-1.4.5-2.4.5-3.4.5-1 2.9-3.8 4.3-5.7 2.4-.5 1.9-2.9 4.3-4.8 3.8-2-1-2.4-2.4-2-3.8-2.3 2.8-5.2 1-6.1 0-.5-1 0-3.4 1-6.3"/></g><path stroke="none" d="M918.3 274.6c-1.4 1-2.9 0-4.3 1.5-1 1 .5 1.4 1.4 1.4-.4 1.5-.4 2 2 2-1 1.4 1.9 1.9 1.4 3.8a4.6 4.6 0 0 0 1-4.8c-.5-1.5-3-2.4-1.5-3.9"/><path fill="#073163" stroke="none" d="M874.7 259.3c-2-1-2.4-2.4-2-3.8-.4 1-1.3 1.4-2.3 1.4-2 4.3-4.3 8.2-7.2 8.2-3.4.4-2.9 3.8-.5 3.8 5.3 1 7.7-1 12-9.6m-47.4-11.5c1.4-1.4.4-2.9-.5-3.3-1.5-.5-4.3 0-5.8 2.3 1.5-.4 3-.4 3.4.5.5 1 1.4 2 2.9.5m2.4-8.6c3.3 0 4.3.5 4.7 1.9.5 1-.4 2.4-1.4 2.4-1.4 0-2.9-1-2.4-1.4.5-1 .5-2.4-1-3zm9.5 7.6c2.4.5 3.4-1 2-2.8-.5-1.5-2-2.4-4.4-2 2.4 1.5 0 3.9 2.4 4.8m-17.7 8.2a4 4 0 0 0 4.8 2c1.4-.6 2-2 1.4-3-1-1.4-2.4-1.9-2.8 0-1 2-2.4 1.5-3.4 1m7.2 29.2c-1-1.9-3.8-1.9-6.2 0 1-.5 2.8 0 3.3 1s1.5 1 2 1c.4-.5 1.4-1 .9-2m3.8-2.8c0-2.4-3.3-3-5.2-2 1 0 2.4 1 2.4 2 .4 1 1.4 1.4 1.9 1.4 1-.5 1.4-1 1-1.4zm-4.8 8.6c-2.8-.5-4.3 2.9-4.3 5.2.5-1.4 2-2.3 3.4-1.9 1.4 0 1.9-.4 1.9-1.4.5-1 0-1.4-1-2zm.5 8.1c1 .5 2-.5 2.4-1.9 0-1 2-1 2.4-.5 1 .5 1 2.4-.5 3.4-1 .5-3.3 1-4.3-1m66.6-14.4c-1-.4-3.3-1.4-5.2 0 1.4-.4 2.4.5 2.8 1.5 0 1 1.5 1.4 2 .5.4-.5 1-1.5.4-2m-4.3 3.4c-1.9-1-4.3 1.4-4.8 3.4a7 7 0 0 1 3.4-1.5c1 .5 1.9 0 1.9-1 .5-.4.5-.9-.5-.9m2.5 3.9c-1.5 0-3.4 1.9-3.4 3.8.4-1 1.4-1.5 2.4-1 1 0 2.4-.5 2.4-1.4q0-1.5-1.5-1.5zm4.2 3.8c-1-.5-2.4 0-2.4 1.4s0 2.9-.4 3.4c1-1 1.9-1.5 2.8-2 .5-.4 1-1.9 0-2.8m54.2-4.3c-1-1-2.4-.5-2.9.4-.5 1-1 3.4 0 5.3 0-1 1-2.4 2-2.4 1.4-.5 1.8-2.4.9-3.3m2.9 1.9c-2 1-2 4.3-.5 6.2 0-1 .5-2.4 1.4-2.9 1.5 0 2-1.9 1.5-2.8-1-1-2-.5-2.4-.5m5.7 1.9c-1-.5-2 .5-2 1.4-.4 1.5.6 3.4 2 4.3 0-1 .5-1.9 1-2.4 1.4-1 1-2.8-1-3.3m4.3-.5c-1 0-1.9 1.4-1 2.9.5 1 1.5 1.4 3.4 1-.5 0-1.4-1.5-1-2 .5-1 0-1.9-1.4-1.9"/></g><g id="h"><path fill="#f9d050" d="m831.1 383.4 24-73.8 24 73.8-62.9-45.5H894Z"/><path fill="#024919" d="m835.9 376.7 49.8-36.4h-61.3l49.3 36.4-18.6-58.4z"/></g><use xlink:href="#h" width="100%" height="100%" x="90.1"/><use xlink:href="#h" width="100%" height="100%" x="45" y="52.2"/><path fill="none" stroke="#000" d="M989.7 233v93.4c0 81-38.3 108.8-89.6 130.8-51.3-22-90-49.8-90-130.8v-93.5h179.6z"/></g></svg>